<?xml version="1.0" encoding="utf-8"?>
<!-- Generator: Adobe Illustrator 24.1.3, SVG Export Plug-In . SVG Version: 6.00 Build 0)  -->
<svg version="1.1" id="Capa_6" xmlns="http://www.w3.org/2000/svg" xmlns:xlink="http://www.w3.org/1999/xlink" x="0px" y="0px"
	 viewBox="0 0 191.7 77" style="enable-background:new 0 0 191.7 77;" xml:space="preserve">
<style type="text/css">
	.st0{fill:#FFFFFF;}
	.st1{fill:#FFCC03;stroke:#FFCC03;stroke-miterlimit:10;}
	.st2{fill:#FFCC03;}
</style>
<g>
	<g>
		<path class="st0" d="M42.3,31.5c-1-1.1-2.1-1.9-3.5-2.6c-1.4-0.6-3-1-4.8-1c-2.1,0-4.1,0.4-5.6,1.2c-1.6,0.8-2.9,1.7-4,3
			c-1.1,1.3-1.8,2.8-2.4,4.5c-0.5,1.7-0.8,3.5-0.8,5.6s0.2,3.9,0.8,5.6s1.3,3.1,2.5,4.4c1.2,1.2,2.6,2.1,4.3,2.9
			c1.7,0.6,3.9,1.1,6.2,1.1c1.7,0,3.2-0.1,4.6-0.3c1.4-0.2,2.7-0.6,3.8-1.1c0-0.8-0.1-1.5-0.3-2.3s-0.4-1.4-0.6-1.9
			c-2.3,0.9-4.6,1.3-7.1,1.3c-2.8,0-4.9-0.6-6.4-2s-2.3-3.5-2.3-6.4l0,0h18.2c0-0.4,0.1-0.9,0.1-1.4s0-1.1,0-1.5
			c0-1.8-0.2-3.4-0.8-4.9C43.9,33.9,43.3,32.6,42.3,31.5z M26.8,39.4c0.2-2.4,1-4.1,2-5.4c1.2-1.3,2.8-1.9,4.9-1.9
			c1.1,0,2,0.2,2.8,0.6c0.8,0.4,1.4,1,1.9,1.6s0.9,1.4,1.2,2.4c0.2,0.9,0.4,1.8,0.4,2.8L26.8,39.4L26.8,39.4z"/>
		<path class="st0" d="M65.4,28c-1.1,0-2,0.1-3,0.4c-0.9,0.3-1.7,0.6-2.4,1.2c-0.6,0.4-1.3,1-1.8,1.6s-1,1.2-1.3,1.8
			c0-0.5-0.1-1.3-0.2-2.3c-0.1-1-0.2-1.6-0.3-2.1c-0.4-0.1-0.8-0.1-1.1-0.2c-0.3,0-0.6,0-1.1,0c-0.4,0-0.8,0-1.2,0
			c-0.3,0-0.8,0.1-1.1,0.2v26.8c0.4,0.1,0.9,0.1,1.3,0.2c0.5,0,1,0,1.3,0c0.4,0,0.9,0,1.3,0s0.9-0.1,1.3-0.2V41.9
			c0-1.6,0.2-3,0.6-4.2c0.4-1.2,1-2.1,1.6-2.8c0.6-0.8,1.4-1.3,2.3-1.6c0.9-0.3,1.8-0.5,2.8-0.5c1.6,0,2.9,0.5,3.6,1.7
			s1.2,3,1.2,5.5v15.6c0.3,0.1,0.9,0.1,1.3,0.2c0.4,0,0.9,0,1.3,0s0.9,0,1.3,0c0.5,0,1-0.1,1.3-0.2V38.4c0-3.4-0.8-6-2.1-7.8
			C70.7,28.9,68.5,28,65.4,28z"/>
		<path class="st0" d="M88.7,28.7L88.7,28.7c-0.3-0.1-0.9-0.2-1.3-0.2s-0.9,0-1.3,0c-0.3,0-0.8,0-1.2,0c-0.4,0-0.9,0.1-1.3,0.2v22.7
			l0,0v4.1c0.4,0.1,0.9,0.1,1.3,0.2c0.4,0,0.9,0,1.2,0c0.3,0,0.9,0,1.3,0s0.9-0.1,1.3-0.2V28.7L88.7,28.7z"/>
		<path class="st0" d="M16.3,16.6c-3.2,0-5.6,0.9-7.2,2.6s-2.5,4.3-2.5,7.5v1.9H2.3c-0.1,0.6-0.2,1.3-0.2,2c0,0.9,0,1.5,0.2,2h4.4
			v22.7c0.4,0.1,0.9,0.1,1.3,0.2c0.5,0,1,0,1.3,0s0.9,0,1.3,0c0.4,0,0.9-0.1,1.3-0.2V32.6h6.9c0.1-0.6,0.1-1.3,0.1-1.9
			c0-0.8,0-1.4-0.1-2.1h-6.9v-1.7c0-1.2,0.1-2.3,0.3-3c0.2-0.8,0.5-1.4,1.1-1.8c0.4-0.4,1-0.8,1.6-0.9c0.6-0.2,1.3-0.2,2-0.2
			c0.6,0,1.2,0,1.7,0.1c0.4,0.1,0.9,0.2,1.2,0.2c0.2-0.6,0.4-1.3,0.5-1.9s0.2-1.4,0.3-2.3c-0.6-0.2-1.2-0.3-1.9-0.4
			C17.9,16.7,17.2,16.6,16.3,16.6z"/>
	</g>
	<g>
		<path class="st0" d="M183.4,37.8c0-2-0.5-3.4-1.6-4.3c-1.1-0.9-2.6-1.2-4.5-1.2c-1.2,0-2.4,0.1-3.4,0.3c-1.1,0.2-2.1,0.4-3.1,0.8
			c-0.6-1.2-1-2.6-1-4.2c1.2-0.4,2.5-0.6,3.9-0.9s2.8-0.3,4.2-0.3c3.4,0,6.1,0.8,7.9,2.4c1.8,1.6,2.7,4.1,2.7,7.6v16.7
			c-1.2,0.3-2.7,0.5-4.4,0.9c-1.7,0.3-3.5,0.4-5.4,0.4c-1.7,0-3.2-0.2-4.6-0.4c-1.4-0.3-2.6-0.9-3.5-1.5c-1-0.6-1.7-1.6-2.3-2.7
			c-0.5-1.1-0.8-2.4-0.8-4c0-1.5,0.3-2.8,1-4c0.6-1.1,1.4-2,2.5-2.8s2.3-1.3,3.6-1.7s2.8-0.5,4.3-0.5c1.1,0,2,0,2.8,0.1
			s1.3,0.1,1.8,0.2L183.4,37.8L183.4,37.8z M183.4,42.8c-0.5-0.1-1.2-0.1-2-0.2c-0.9-0.1-1.5-0.1-2-0.1c-2.1,0-3.9,0.4-4.9,1.2
			c-1.2,0.9-1.7,2-1.7,3.6c0,1.1,0.2,1.8,0.5,2.5c0.3,0.6,0.9,1.1,1.4,1.4c0.5,0.3,1.2,0.5,1.9,0.5c0.8,0,1.4,0.1,2,0.1
			c0.9,0,1.6,0,2.5-0.1s1.6-0.2,2.3-0.4V42.8L183.4,42.8z"/>
	</g>
	<path class="st0" d="M160.7,28.6v17.1c-0.4,0.1-0.9,0.1-1.3,0.2c-0.4,0-0.9,0-1.3,0c-0.3,0-0.8,0-1.2,0s-0.9-0.1-1.3-0.2v-13
		 M155.7,41.6v-13c0.4-0.1,0.9-0.1,1.3-0.1c0.4,0,0.9,0,1.2,0c0.4,0,0.9,0,1.3,0s0.9,0.1,1.3,0.1v17.1"/>
	<circle class="st1" cx="158.2" cy="17.9" r="4.3"/>
	<g>
		<g>
			<g>
				<g>
					<path class="st0" d="M137.4,19.8c-4-4.2-13.5-6.7-27.7-6.7h-7.4v-10c0-0.5-0.2-1-0.5-1.3s-1-0.6-1.4-0.6s-1,0.2-1.3,0.5
						L83.7,17c-0.3,0.4-0.5,0.9-0.5,1.3s0.2,1,0.5,1.3l15.2,15.2c0.3,0.3,0.9,0.5,1.3,0.5s1-0.2,1.3-0.5s0.5-0.9,0.5-1.3v-10
						c0,0,26.7-2.8,32,3.3c2.1,2.5-7.4,13.2-7.2,14.7c0,0.3,0.1,0.5,0.2,0.8c0.2,0.2,7.6,0.3,7.9,0.3c0.3,0,0.6-0.1,0.9-0.5
						C138.6,37.3,142.7,25.6,137.4,19.8z"/>
				</g>
			</g>
		</g>
		<g>
			<g>
				<g>
					<path class="st2" d="M107.5,57.8c4,4.2,13.5,6.7,27.7,6.7h7.4v10c0,0.5,0.2,1,0.5,1.3s0.9,0.5,1.3,0.5c0.4,0,1-0.2,1.3-0.5
						L161,60.4c0.4-0.3,0.5-0.9,0.5-1.3c0-0.4-0.2-1-0.5-1.3l-15.1-15.3c-0.4-0.3-0.9-0.5-1.3-0.5s-1,0.2-1.3,0.5s-0.6,0.9-0.6,1.4
						v10c0,0-26.7,2.8-32-3.3c-2.1-2.5,7.4-13.2,7.2-14.7c0-0.3-0.1-0.5-0.2-0.8c-0.2-0.2-7.6-0.3-7.9-0.3s-0.6,0.1-0.9,0.5
						C106.1,40.3,102.1,52,107.5,57.8z"/>
				</g>
			</g>
		</g>
	</g>
</g>
</svg>
