<?xml version="1.0" encoding="utf-8"?>
<!-- Generator: Adobe Illustrator 24.1.3, SVG Export Plug-In . SVG Version: 6.00 Build 0)  -->
<svg version="1.1" id="Capa_1" xmlns="http://www.w3.org/2000/svg" xmlns:xlink="http://www.w3.org/1999/xlink" x="0px" y="0px"
	 viewBox="0 0 50 50" style="enable-background:new 0 0 50 50;" xml:space="preserve">
<path d="M0.6,26.4l19.7,19.7c0.8,0.8,2.1,0.8,2.8,0c0.8-0.8,0.8-2.1,0-2.8L6.9,27H48c1.1,0,2-0.9,2-2c0-1.1-0.9-2-2-2H6.9L23.1,6.7
	c0.8-0.8,0.8-2.1,0-2.8c-0.4-0.4-0.9-0.6-1.4-0.6c-0.5,0-1,0.2-1.4,0.6L0.6,23.6C-0.2,24.4-0.2,25.6,0.6,26.4z"/>
</svg>
