<?xml version="1.0" encoding="utf-8"?>
<!-- Generator: Adobe Illustrator 24.1.3, SVG Export Plug-In . SVG Version: 6.00 Build 0)  -->
<svg version="1.1" id="Capa_1" xmlns="http://www.w3.org/2000/svg" xmlns:xlink="http://www.w3.org/1999/xlink" x="0px" y="0px"
	 viewBox="0 0 15 15" style="enable-background:new 0 0 15 15;" xml:space="preserve">
<style type="text/css">
	.st0{fill:#FECB37;}
</style>
<g>
	<g>
		<path class="st0" d="M14.9,0.1C14.7,0,14.6,0,14.4,0L0.3,5.7C0.1,5.7,0,5.9,0,6.1c0,0.2,0.1,0.3,0.2,0.4l3.8,1.8l-3.9,3.9
			C0,12.3,0,12.5,0,12.6c0,0.1,0,0.2,0.1,0.3l2,2C2.2,15,2.3,15,2.4,15s0.2,0,0.3-0.1l3.9-3.9l1.8,3.8C8.6,14.9,8.8,15,8.9,15
			c0.2,0,0.3-0.1,0.4-0.3L15,0.6C15,0.4,15,0.3,14.9,0.1z"/>
	</g>
</g>
</svg>
