<?xml version="1.0" encoding="utf-8"?>
<!-- Generator: Adobe Illustrator 24.1.3, SVG Export Plug-In . SVG Version: 6.00 Build 0)  -->
<svg version="1.1" id="Capa_1" xmlns="http://www.w3.org/2000/svg" xmlns:xlink="http://www.w3.org/1999/xlink" x="0px" y="0px"
	 viewBox="0 0 50 50" style="enable-background:new 0 0 50 50;" xml:space="preserve">
<g>
	<g>
		<g>
			<path d="M24.7,43.7c0,3.5,2.8,6.3,6.3,6.3s6.3-2.8,6.3-6.3c0-3.5-2.8-6.3-6.3-6.3C27.5,37.4,24.7,40.2,24.7,43.7z M28.5,43.7
				c0-1.4,1.1-2.5,2.5-2.5c1.4,0,2.5,1.1,2.5,2.5s-1.1,2.5-2.5,2.5C29.6,46.2,28.5,45.1,28.5,43.7z"/>
			<path d="M6,43.7c0,3.5,2.8,6.3,6.3,6.3s6.3-2.8,6.3-6.3c0-3.5-2.8-6.3-6.3-6.3S6,40.2,6,43.7z M9.8,43.7c0-1.4,1.1-2.5,2.5-2.5
				s2.5,1.1,2.5,2.5s-1.1,2.5-2.5,2.5S9.8,45.1,9.8,43.7z"/>
			<path d="M1,13.9l4.4,19.1c0.2,0.9,1,1.5,1.8,1.5h26.5c0.9,0,1.7-0.6,1.9-1.5l5.6-28.1l6.3-1.2c1-0.2,1.7-1.2,1.5-2.2
				c-0.2-1-1.2-1.7-2.2-1.5l-7.6,1.4c-0.8,0.1-1.4,0.7-1.5,1.5L36,11.6H2.8c-0.6,0-1.1,0.3-1.5,0.7C1,12.8,0.9,13.4,1,13.9z
				 M5.2,15.4h30l-3,15.3H8.8L5.2,15.4z"/>
		</g>
	</g>
</g>
</svg>
