<?xml version="1.0" encoding="utf-8"?>
<!-- Generator: Adobe Illustrator 24.1.3, SVG Export Plug-In . SVG Version: 6.00 Build 0)  -->
<svg version="1.1" id="Capa_1" xmlns="http://www.w3.org/2000/svg" xmlns:xlink="http://www.w3.org/1999/xlink" x="0px" y="0px"
	 viewBox="0 0 17 17" style="enable-background:new 0 0 17 17;" xml:space="preserve">
<style type="text/css">
	.st0{fill:#FECB37;}
</style>
<g>
	<g>
		<path class="st0" d="M8.5,0C3.8,0,0,3.8,0,8.5S3.8,17,8.5,17S17,13.2,17,8.5C17,3.8,13.2,0,8.5,0z M13.2,5.9L7.1,12
			c-0.2,0.2-0.6,0.2-0.9,0L3.8,9.5c-0.2-0.2-0.2-0.6,0-0.9c0.2-0.2,0.6-0.2,0.9,0c0,0,0,0,0,0l2,2L12.3,5c0.2-0.2,0.6-0.2,0.9,0
			C13.4,5.3,13.4,5.7,13.2,5.9z"/>
	</g>
</g>
</svg>
