<?xml version="1.0" encoding="utf-8"?>
<!-- Generator: Adobe Illustrator 24.1.3, SVG Export Plug-In . SVG Version: 6.00 Build 0)  -->
<svg version="1.1" id="Capa_1" xmlns="http://www.w3.org/2000/svg" xmlns:xlink="http://www.w3.org/1999/xlink" x="0px" y="0px"
	 viewBox="0 0 50 50" style="enable-background:new 0 0 50 50;" xml:space="preserve">
<g>
	<g>
		<g>
			<path d="M48,23H2c-1.1,0-2,0.9-2,2s0.9,2,2,2H48c1.1,0,2-0.9,2-2S49.1,23,48,23z"/>
		</g>
	</g>
	<g>
		<g>
			<path d="M48,7.4H2c-1.1,0-2,0.9-2,2s0.9,2,2,2H48c1.1,0,2-0.9,2-2S49.1,7.4,48,7.4z"/>
		</g>
	</g>
	<g>
		<g>
			<path d="M48,38.7H2c-1.1,0-2,0.9-2,2s0.9,2,2,2H48c1.1,0,2-0.9,2-2S49.1,38.7,48,38.7z"/>
		</g>
	</g>
</g>
</svg>
