<?xml version="1.0" encoding="utf-8"?>
<!-- Generator: Adobe Illustrator 24.1.3, SVG Export Plug-In . SVG Version: 6.00 Build 0)  -->
<svg version="1.1" id="Capa_1" xmlns="http://www.w3.org/2000/svg" xmlns:xlink="http://www.w3.org/1999/xlink" x="0px" y="0px"
	 viewBox="0 0 50 50" style="enable-background:new 0 0 50 50;" xml:space="preserve">
<style type="text/css">
	.st0{fill:#222221;}
</style>
<g id="XMLID_2111_">
	<path id="XMLID_2112_" class="st0" d="M0-92.93c4.54,2.91,9.93,4.61,15.72,4.61c19.05,0,29.81-16.09,29.16-30.52
		c2-1.44,3.74-3.25,5.12-5.31c-1.84,0.82-3.82,1.37-5.89,1.61c2.12-1.27,3.74-3.28,4.51-5.67c-1.98,1.18-4.18,2.03-6.51,2.49
		c-1.87-1.99-4.54-3.24-7.49-3.24c-6.62,0-11.49,6.18-9.99,12.6c-8.53-0.43-16.08-4.51-21.14-10.72c-2.69,4.61-1.39,10.64,3.17,13.7
		c-1.68-0.05-3.27-0.52-4.65-1.28c-0.11,4.75,3.29,9.2,8.23,10.19c-1.44,0.39-3.03,0.48-4.63,0.17c1.3,4.08,5.09,7.04,9.58,7.12
		C10.88-93.8,5.44-92.29,0-92.93z"/>
</g>
<g id="XMLID_2080_">
	<path id="XMLID_2081_" class="st0" d="M105.51-78.96h10.07v-25.21h7.02l0.75-8.44h-7.77c0,0,0-3.15,0-4.81
		c0-1.99,0.4-2.78,2.32-2.78c1.55,0,5.45,0,5.45,0v-8.76c0,0-5.74,0-6.97,0c-7.49,0-10.87,3.3-10.87,9.62c0,5.5,0,6.73,0,6.73h-5.24
		v8.55h5.24V-78.96z"/>
</g>
<g id="XMLID_2023_">
	<g id="XMLID_2024_">
		<path id="XMLID_2076_" class="st0" d="M25,4.5c6.68,0,7.47,0.03,10.1,0.15c2.44,0.11,3.76,0.52,4.64,0.86
			c1.17,0.45,2,0.99,2.87,1.87c0.88,0.88,1.42,1.71,1.87,2.87c0.34,0.88,0.75,2.2,0.86,4.64c0.12,2.64,0.15,3.43,0.15,10.1
			s-0.03,7.47-0.15,10.1c-0.11,2.44-0.52,3.76-0.86,4.64c-0.45,1.17-0.99,2-1.87,2.87c-0.87,0.87-1.71,1.42-2.87,1.87
			c-0.88,0.34-2.21,0.75-4.64,0.86c-2.64,0.12-3.43,0.15-10.1,0.15s-7.47-0.03-10.1-0.15c-2.44-0.11-3.76-0.52-4.64-0.86
			c-1.17-0.45-2-1-2.87-1.87c-0.87-0.87-1.42-1.71-1.87-2.87c-0.34-0.88-0.75-2.2-0.86-4.64C4.53,32.47,4.5,31.68,4.5,25
			s0.03-7.47,0.15-10.1c0.11-2.44,0.52-3.76,0.86-4.64c0.45-1.17,1-2,1.87-2.87c0.87-0.87,1.71-1.42,2.87-1.87
			c0.88-0.34,2.2-0.75,4.64-0.86C17.53,4.53,18.33,4.5,25,4.5 M25,0c-6.79,0-7.64,0.03-10.31,0.15c-2.66,0.12-4.48,0.54-6.07,1.16
			C6.98,1.95,5.59,2.81,4.2,4.2C2.81,5.59,1.95,6.98,1.31,8.62c-0.62,1.59-1.04,3.41-1.16,6.07C0.03,17.36,0,18.21,0,25
			c0,6.79,0.03,7.64,0.15,10.31c0.12,2.66,0.54,4.48,1.16,6.07c0.64,1.64,1.49,3.04,2.88,4.43c1.39,1.39,2.78,2.24,4.43,2.88
			c1.59,0.62,3.41,1.04,6.07,1.16C17.36,49.97,18.21,50,25,50c6.79,0,7.64-0.03,10.31-0.15c2.66-0.12,4.48-0.54,6.07-1.16
			c1.64-0.64,3.04-1.49,4.43-2.88c1.39-1.39,2.24-2.78,2.88-4.43c0.62-1.59,1.04-3.41,1.16-6.07C49.97,32.64,50,31.79,50,25
			c0-6.79-0.03-7.64-0.15-10.31c-0.12-2.66-0.54-4.48-1.16-6.07c-0.64-1.64-1.49-3.04-2.88-4.43c-1.39-1.39-2.78-2.24-4.43-2.88
			c-1.59-0.62-3.41-1.04-6.07-1.16C32.64,0.03,31.79,0,25,0"/>
		<path id="XMLID_2073_" class="st0" d="M25,12.16c-7.09,0-12.84,5.75-12.84,12.84c0,7.09,5.75,12.84,12.84,12.84
			c7.09,0,12.84-5.75,12.84-12.84C37.84,17.91,32.09,12.16,25,12.16 M25,33.33c-4.6,0-8.33-3.73-8.33-8.33
			c0-4.6,3.73-8.33,8.33-8.33s8.33,3.73,8.33,8.33C33.33,29.6,29.6,33.33,25,33.33"/>
		<path id="XMLID_2025_" class="st0" d="M41.35,11.65c0,1.66-1.34,3-3,3c-1.66,0-3-1.34-3-3c0-1.66,1.34-3,3-3
			C40,8.65,41.35,10,41.35,11.65"/>
	</g>
</g>
</svg>
