<?xml version="1.0" encoding="utf-8"?>
<!-- Generator: Adobe Illustrator 24.1.3, SVG Export Plug-In . SVG Version: 6.00 Build 0)  -->
<svg version="1.1" id="Capa_1" xmlns="http://www.w3.org/2000/svg" xmlns:xlink="http://www.w3.org/1999/xlink" x="0px" y="0px"
	 viewBox="0 0 17 19.7" style="enable-background:new 0 0 17 19.7;" xml:space="preserve">
<style type="text/css">
	.st0{fill:#FECB37;}
</style>
<g>
	<g>
		<path class="st0" d="M8.5,0C4.4,0,1,3.4,1,7.5c0,1.6,0.5,3.2,1.5,4.5L8,19.5c0,0,0,0,0.1,0c0.3,0.3,0.7,0.2,0.9,0
			c1.6-2.1,4.5-6.1,5.6-7.6c0,0,0,0,0,0l0,0c0.9-1.3,1.4-2.8,1.4-4.3C16,3.4,12.6,0,8.5,0z M8.5,11.5c-2.2,0-4-1.8-4-4s1.8-4,4-4
			s4,1.8,4,4S10.7,11.5,8.5,11.5z"/>
	</g>
</g>
</svg>
