<?xml version="1.0" encoding="utf-8"?>
<!-- Generator: Adobe Illustrator 24.1.3, SVG Export Plug-In . SVG Version: 6.00 Build 0)  -->
<svg version="1.1" id="Capa_1" xmlns="http://www.w3.org/2000/svg" xmlns:xlink="http://www.w3.org/1999/xlink" x="0px" y="0px"
	 viewBox="0 0 50 50" style="enable-background:new 0 0 50 50;" xml:space="preserve">
<style type="text/css">
	.st0{fill:#676766;}
</style>
<g>
	<g>
		<path class="st0" d="M24.7,24.1c3.2,0,6-1.2,8.3-3.4c2.3-2.3,3.4-5.1,3.4-8.3s-1.2-6-3.4-8.3s-5.1-3.4-8.3-3.4s-6,1.2-8.3,3.4
			S13,9.2,13,12.4s1.2,6,3.4,8.3S21.5,24.1,24.7,24.1z M18.5,6.2c1.7-1.7,3.8-2.6,6.3-2.6s4.5,0.9,6.3,2.6c1.7,1.7,2.6,3.8,2.6,6.3
			s-0.9,4.5-2.6,6.3c-1.7,1.7-3.8,2.6-6.3,2.6c-2.5,0-4.5-0.9-6.3-2.6c-1.7-1.7-2.6-3.8-2.6-6.3C15.9,10,16.7,7.9,18.5,6.2z"/>
		<path class="st0" d="M24.7,24.8c-3.4,0-6.4-1.2-8.8-3.6c-2.4-2.4-3.6-5.4-3.6-8.8s1.2-6.4,3.6-8.8C18.3,1.2,21.3,0,24.7,0
			c3.4,0,6.4,1.2,8.8,3.6c2.4,2.4,3.6,5.4,3.6,8.8s-1.2,6.4-3.6,8.8C31.1,23.6,28.1,24.8,24.7,24.8z M24.7,1.5c-3,0-5.6,1.1-7.8,3.2
			c-2.1,2.1-3.2,4.7-3.2,7.8c0,3,1.1,5.6,3.2,7.8c2.1,2.1,4.7,3.2,7.8,3.2s5.6-1.1,7.8-3.2c2.1-2.1,3.2-4.7,3.2-7.8
			s-1.1-5.6-3.2-7.8C30.3,2.5,27.7,1.5,24.7,1.5z M24.7,22c-2.7,0-4.9-0.9-6.8-2.8c-1.9-1.9-2.8-4.1-2.8-6.8c0-2.7,0.9-4.9,2.8-6.8
			l0,0c1.9-1.9,4.1-2.8,6.8-2.8s4.9,0.9,6.8,2.8c1.9,1.9,2.8,4.1,2.8,6.8s-0.9,4.9-2.8,6.8C29.6,21.1,27.4,22,24.7,22z M19,6.7
			c-1.6,1.6-2.4,3.5-2.4,5.7c0,2.3,0.8,4.1,2.4,5.7c1.6,1.6,3.5,2.4,5.7,2.4c2.3,0,4.1-0.8,5.7-2.4c1.6-1.6,2.4-3.5,2.4-5.7
			s-0.8-4.1-2.4-5.7c-1.6-1.6-3.5-2.4-5.7-2.4C22.4,4.3,20.6,5.1,19,6.7L19,6.7z"/>
	</g>
	<g>
		<path class="st0" d="M45.2,38.1c-0.1-0.9-0.2-2-0.4-3.1c-0.2-1.1-0.5-2.1-0.8-3.1c-0.3-1-0.7-2-1.3-2.9c-0.6-1-1.2-1.8-1.9-2.5
			c-0.8-0.7-1.7-1.3-2.7-1.7c-1.1-0.4-2.2-0.6-3.5-0.6c-0.5,0-1,0.2-1.9,0.8c-0.6,0.4-1.2,0.8-2,1.3c-0.6,0.4-1.5,0.8-2.6,1.1
			c-1,0.3-2.1,0.5-3.1,0.5c-1,0-2.1-0.2-3.1-0.5c-1.1-0.3-1.9-0.7-2.6-1.1c-0.7-0.5-1.4-0.9-2-1.3c-0.9-0.6-1.4-0.8-1.9-0.8
			c-1.3,0-2.4,0.2-3.5,0.6c-1.1,0.4-2,1-2.7,1.7c-0.7,0.7-1.4,1.5-1.9,2.5c-0.5,0.9-1,1.9-1.3,2.9c-0.3,0.9-0.6,2-0.8,3.1
			c-0.2,1.1-0.3,2.1-0.4,3.1c-0.1,0.9-0.1,1.9-0.1,2.9c0,2.5,0.8,4.6,2.4,6.1c1.6,1.5,3.6,2.3,6.2,2.3h23.4c2.5,0,4.6-0.8,6.2-2.3
			c1.6-1.5,2.4-3.6,2.4-6.1C45.3,39.9,45.2,39,45.2,38.1z M40.9,45c-1,1-2.4,1.5-4.2,1.5H13.3c-1.8,0-3.2-0.5-4.2-1.5
			c-1-1-1.5-2.3-1.5-4c0-0.9,0-1.8,0.1-2.7c0.1-0.8,0.2-1.8,0.4-2.8c0.2-1,0.4-1.9,0.7-2.7c0.3-0.8,0.6-1.6,1-2.3
			c0.4-0.7,0.9-1.3,1.4-1.8c0.5-0.5,1.1-0.9,1.8-1.1c0.7-0.3,1.4-0.4,2.2-0.4c0.1,0,0.3,0.2,0.6,0.3c0.6,0.4,1.3,0.8,2,1.3
			c0.8,0.5,1.9,1,3.2,1.4c1.3,0.4,2.7,0.6,4,0.6s2.7-0.2,4-0.6c1.3-0.4,2.4-0.9,3.2-1.4c0.8-0.5,1.4-0.9,2-1.3
			c0.3-0.2,0.5-0.3,0.6-0.3c0.8,0,1.6,0.2,2.2,0.4c0.7,0.3,1.3,0.7,1.8,1.1c0.5,0.5,1,1.1,1.4,1.8c0.4,0.8,0.8,1.5,1,2.3
			c0.3,0.8,0.5,1.7,0.7,2.7c0.2,1,0.3,1.9,0.4,2.8l0,0c0.1,0.9,0.1,1.8,0.1,2.7C42.4,42.7,41.9,44,40.9,45z"/>
		<path class="st0" d="M36.7,50H13.3c-2.7,0-5-0.8-6.7-2.5C4.9,45.9,4,43.7,4,40.9c0-1,0-2,0.1-2.9c0.1-0.9,0.2-2,0.4-3.1
			c0.2-1.1,0.4-2.1,0.8-3.2c0.3-1,0.8-2,1.3-3c0.6-1,1.3-1.9,2-2.7c0.8-0.8,1.8-1.4,3-1.9c1.2-0.5,2.4-0.7,3.8-0.7
			c0.7,0,1.4,0.3,2.3,0.9l2,1.3c0.6,0.4,1.4,0.7,2.4,1.1c2,0.6,3.9,0.6,5.8,0c1-0.3,1.8-0.7,2.4-1.1c0.5-0.3,1-0.7,1.5-0.9l0.5-0.3
			c0.9-0.6,1.6-0.9,2.3-0.9c1.4,0,2.6,0.2,3.8,0.7c1.2,0.5,2.2,1.1,3,1.9c0.8,0.7,1.5,1.6,2,2.7c0.6,1,1,2,1.3,3
			c0.3,1,0.6,2.1,0.8,3.2c0.2,1,0.3,2.1,0.4,3.1l0,0c0.1,1,0.1,2,0.1,2.9c0,2.7-0.9,5-2.6,6.6C41.7,49.2,39.4,50,36.7,50z
			 M15.4,24.9c-1.2,0-2.3,0.2-3.2,0.6c-1,0.4-1.8,0.9-2.5,1.6c-0.7,0.6-1.3,1.4-1.8,2.3c-0.5,0.9-0.9,1.8-1.2,2.7
			c-0.3,1-0.6,2-0.7,3c-0.2,1.1-0.3,2.1-0.4,3c-0.1,0.9-0.1,1.8-0.1,2.8c0,2.3,0.7,4.2,2.2,5.6c1.4,1.4,3.3,2.1,5.7,2.1h23.4
			c2.3,0,4.2-0.7,5.7-2.1c1.4-1.4,2.2-3.2,2.2-5.6c0-0.9,0-1.9-0.1-2.8v0c-0.1-1-0.2-2-0.4-3c-0.2-1-0.4-2-0.7-3
			c-0.3-0.9-0.7-1.8-1.2-2.7c-0.5-0.9-1.1-1.7-1.8-2.3c-0.7-0.7-1.5-1.2-2.5-1.6c-1-0.4-2.1-0.6-3.2-0.6c-0.3,0-0.6,0.1-1.5,0.7
			l-0.5,0.3c-0.4,0.3-0.9,0.6-1.5,0.9c-0.7,0.4-1.6,0.8-2.7,1.2c-2.2,0.7-4.4,0.7-6.7,0c-1.1-0.4-2.1-0.8-2.7-1.2l-2-1.3
			C16,25,15.7,24.9,15.4,24.9z M36.7,47.2H13.3c-2,0-3.5-0.5-4.7-1.7c-1.2-1.1-1.7-2.6-1.7-4.6c0-0.9,0-1.8,0.1-2.7
			c0.1-0.9,0.2-1.9,0.4-2.9c0.2-1,0.4-2,0.7-2.8c0.3-0.8,0.6-1.7,1.1-2.5c0.4-0.8,1-1.5,1.5-2c0.6-0.5,1.3-1,2.1-1.3
			c0.7-0.3,1.6-0.5,2.5-0.5l0.2,0l0.2,0.1c0.1,0.1,0.3,0.2,0.6,0.4l2,1.3c0.8,0.5,1.8,0.9,3,1.4c2.6,0.8,5.1,0.8,7.5,0
			c1.2-0.4,2.3-0.9,3.1-1.4c0.8-0.5,1.4-0.9,2-1.3c0.3-0.2,0.5-0.3,0.6-0.4l0.2-0.1l0.2,0c0.9,0,1.7,0.2,2.5,0.5
			c0.8,0.3,1.5,0.8,2.1,1.3c0.6,0.6,1.1,1.2,1.5,2c0.4,0.7,0.8,1.6,1.1,2.5c0.3,0.9,0.5,1.9,0.7,2.8c0.2,1.1,0.3,2,0.4,2.8
			c0.1,0.9,0.1,1.8,0.1,2.7c0,2-0.6,3.5-1.7,4.6l0,0C40.2,46.6,38.7,47.2,36.7,47.2z M15.1,27.8c-0.7,0-1.3,0.2-1.8,0.4
			c-0.6,0.2-1.2,0.6-1.6,1c-0.5,0.4-0.9,1-1.3,1.7c-0.4,0.7-0.7,1.4-1,2.2c-0.3,0.8-0.5,1.7-0.6,2.6c-0.2,0.9-0.3,1.8-0.3,2.7
			c-0.1,0.8-0.1,1.7-0.1,2.6c0,1.5,0.4,2.7,1.3,3.5c0.9,0.9,2.1,1.3,3.7,1.3h23.4c1.6,0,2.8-0.4,3.7-1.3l0,0c0.9-0.8,1.3-2,1.3-3.5
			c0-0.9,0-1.8-0.1-2.6c-0.1-0.8-0.2-1.7-0.3-2.7c-0.2-0.9-0.4-1.8-0.6-2.6c-0.3-0.8-0.6-1.5-1-2.2c-0.4-0.7-0.8-1.2-1.3-1.7
			c-0.4-0.4-1-0.7-1.6-1c-0.5-0.2-1.1-0.3-1.8-0.4c-0.1,0.1-0.2,0.1-0.4,0.2c-0.6,0.4-1.2,0.8-2,1.3c-0.9,0.6-2,1.1-3.4,1.5
			c-2.7,0.9-5.6,0.9-8.5,0c-1.4-0.4-2.5-1-3.4-1.5l-2-1.3C15.3,27.9,15.1,27.8,15.1,27.8z"/>
	</g>
</g>
</svg>
