<?xml version="1.0" encoding="utf-8"?>
<!-- Generator: Adobe Illustrator 24.1.3, SVG Export Plug-In . SVG Version: 6.00 Build 0)  -->
<svg version="1.1" id="Capa_1" xmlns="http://www.w3.org/2000/svg" xmlns:xlink="http://www.w3.org/1999/xlink" x="0px" y="0px"
	 viewBox="0 0 17.1 12" style="enable-background:new 0 0 17.1 12;" xml:space="preserve">
<style type="text/css">
	.st0{fill:#FECB37;}
</style>
<g>
	<g>
		<g>
			<path class="st0" d="M16.9,0.9L11.7,6l5.2,5.1c0.1-0.2,0.2-0.4,0.2-0.6v-9C17.1,1.3,17,1.1,16.9,0.9z"/>
		</g>
	</g>
	<g>
		<g>
			<path class="st0" d="M15.6,0H1.5C1.3,0,1.1,0.1,0.9,0.2l6.6,6.6c0.6,0.6,1.5,0.6,2.1,0l6.6-6.6C16,0.1,15.8,0,15.6,0z"/>
		</g>
	</g>
	<g>
		<g>
			<path class="st0" d="M0.2,0.9C0.1,1.1,0,1.3,0,1.5v9c0,0.2,0.1,0.4,0.2,0.6L5.3,6L0.2,0.9z"/>
		</g>
	</g>
	<g>
		<g>
			<path class="st0" d="M11,6.7l-0.7,0.7c-1,1-2.6,1-3.5,0L6,6.7l-5.2,5.1C1.1,11.9,1.3,12,1.5,12h14.1c0.2,0,0.4-0.1,0.6-0.2
				L11,6.7z"/>
		</g>
	</g>
</g>
</svg>
