<?xml version="1.0" encoding="utf-8"?>
<!-- Generator: Adobe Illustrator 24.1.3, SVG Export Plug-In . SVG Version: 6.00 Build 0)  -->
<svg version="1.1" id="Capa_1" xmlns="http://www.w3.org/2000/svg" xmlns:xlink="http://www.w3.org/1999/xlink" x="0px" y="0px"
	 viewBox="0 0 50 50" style="enable-background:new 0 0 50 50;" xml:space="preserve">
<style type="text/css">
	.st0{fill:#676766;}
</style>
<g>
	<g>
		<g>
			<path class="st0" d="M34.3,14.1H21.9c-1.1,0-2,0.9-2,2c0,1.1,0.9,2,2,2h12.4c1.1,0,2-0.9,2-2C36.3,15,35.4,14.1,34.3,14.1z"/>
		</g>
	</g>
	<g>
		<g>
			<path class="st0" d="M39,23.7H21.9c-1.1,0-2,0.9-2,2c0,1.1,0.9,2,2,2H39c1.1,0,2-0.9,2-2C41,24.6,40.1,23.7,39,23.7z"/>
		</g>
	</g>
	<g>
		<g>
			<path class="st0" d="M48,1.7H12.9c-1.1,0-2,0.9-2,2v18.7H7.5c-4.1,0-7.5,3.3-7.5,7.5v11c0,4.1,3.3,7.5,7.5,7.5c0.3,0,0.7,0,1-0.1
				h32.7c4.9,0,8.9-4,8.9-8.9V3.7C50,2.6,49.1,1.7,48,1.7z M11,40.9c0,1.7-1.2,3.1-2.8,3.4H7.5v0.1c-1.9,0-3.5-1.6-3.5-3.5v-11
				c0-1.9,1.6-3.5,3.5-3.5H11L11,40.9L11,40.9z M46,39.4c0,2.6-2.2,4.9-4.9,4.9H14.1c0.5-1,0.8-2.2,0.8-3.4V5.6H46L46,39.4L46,39.4z
				"/>
		</g>
	</g>
	<g>
		<g>
			<path class="st0" d="M34.3,32.7H21.9c-1.1,0-2,0.9-2,2c0,1.1,0.9,2,2,2h12.4c1.1,0,2-0.9,2-2C36.3,33.5,35.4,32.7,34.3,32.7z"/>
		</g>
	</g>
</g>
</svg>
