<?xml version="1.0" encoding="utf-8"?>
<!-- Generator: Adobe Illustrator 24.1.3, SVG Export Plug-In . SVG Version: 6.00 Build 0)  -->
<svg version="1.1" id="Capa_1" xmlns="http://www.w3.org/2000/svg" xmlns:xlink="http://www.w3.org/1999/xlink" x="0px" y="0px"
	 viewBox="0 0 16 16" style="enable-background:new 0 0 16 16;" xml:space="preserve">
<style type="text/css">
	.st0{fill:#FECB37;}
</style>
<g>
	<g>
		<path class="st0" d="M15.5,11.7l-2.2-2.2c-0.8-0.8-2.2-0.5-2.5,0.6c-0.2,0.7-1,1.1-1.8,1c-1.6-0.4-3.7-2.5-4.1-4.1
			c-0.2-0.7,0.2-1.5,1-1.8c1-0.3,1.4-1.7,0.6-2.5L4.2,0.4c-0.6-0.6-1.6-0.6-2.2,0L0.6,1.9C-1,3.5,0.7,7.8,4.5,11.5s8,5.5,9.6,3.9
			l1.5-1.5C16.1,13.3,16.1,12.3,15.5,11.7z"/>
	</g>
</g>
</svg>
