<?xml version="1.0" encoding="utf-8"?>
<!-- Generator: Adobe Illustrator 24.1.3, SVG Export Plug-In . SVG Version: 6.00 Build 0)  -->
<svg version="1.1" id="Capa_1" xmlns="http://www.w3.org/2000/svg" xmlns:xlink="http://www.w3.org/1999/xlink" x="0px" y="0px"
	 viewBox="0 0 50 50" style="enable-background:new 0 0 50 50;" xml:space="preserve">
<style type="text/css">
	.st0{fill:#666666;}
	.st1{fill:#676766;}
</style>
<g>
	<g>
		<g>
			<g>
				<path class="st0" d="M22.1,0.5C10.2,0.5,0.5,10.2,0.5,22s9.7,21.5,21.5,21.5S43.6,33.9,43.6,22S34,0.5,22.1,0.5z M22.1,39.6
					c-9.7,0-17.6-7.9-17.6-17.6S12.4,4.4,22.1,4.4S39.7,12.3,39.7,22S31.7,39.6,22.1,39.6z"/>
				<path class="st1" d="M22.1,44C9.9,44,0,34.2,0,22s9.9-22,22-22s22,9.9,22,22S34.2,44,22.1,44z M22.1,1C10.5,1,1,10.4,1,22
					c0,11.6,9.4,21,21,21c11.6,0,21-9.4,21-21C43.1,10.4,33.7,1,22.1,1z M22.1,40.1C12.1,40.1,4,32,4,22S12.1,3.9,22.1,3.9
					S40.2,12,40.2,22S32,40.1,22.1,40.1z M22.1,4.9C12.6,4.9,5,12.6,5,22c0,9.4,7.7,17.1,17.1,17.1c9.4,0,17.1-7.7,17.1-17.1
					C39.2,12.6,31.5,4.9,22.1,4.9z"/>
			</g>
		</g>
	</g>
	<g>
		<g>
			<g>
				<path class="st0" d="M48.9,46L37.5,34.6c-0.8-0.8-2.1-0.8-2.8,0c-0.8,0.8-0.8,2.1,0,2.8l11.4,11.4c0.4,0.4,0.9,0.6,1.4,0.6
					s1-0.2,1.4-0.6C49.6,48,49.6,46.8,48.9,46z"/>
				<path class="st1" d="M47.5,50c-0.6,0-1.3-0.3-1.7-0.7L34.3,37.8c-1-1-1-2.6,0-3.5s2.6-1,3.5,0l11.3,11.3c1,1,1,2.5,0,3.6
					C48.7,49.7,48.1,50,47.5,50z M36.1,34.5c-0.4,0-0.8,0.1-1.1,0.4c-0.6,0.6-0.6,1.5,0,2.1l11.4,11.4c0.6,0.6,1.5,0.6,2,0
					c0.6-0.7,0.6-1.6,0-2.2L37.2,35C36.9,34.7,36.5,34.5,36.1,34.5z"/>
			</g>
		</g>
	</g>
</g>
</svg>
