<?xml version="1.0" encoding="utf-8"?>
<!-- Generator: Adobe Illustrator 24.1.3, SVG Export Plug-In . SVG Version: 6.00 Build 0)  -->
<svg version="1.1" id="Capa_1" xmlns="http://www.w3.org/2000/svg" xmlns:xlink="http://www.w3.org/1999/xlink" x="0px" y="0px"
	 viewBox="0 0 50 50" style="enable-background:new 0 0 50 50;" xml:space="preserve">
<style type="text/css">
	.st0{fill:#222221;}
</style>
<g id="XMLID_2111_">
	<path id="XMLID_2112_" class="st0" d="M0,40.71c4.54,2.91,9.93,4.61,15.72,4.61c19.05,0,29.81-16.09,29.16-30.52
		c2-1.44,3.74-3.25,5.12-5.31c-1.84,0.82-3.82,1.37-5.89,1.61c2.12-1.27,3.74-3.28,4.51-5.67c-1.98,1.18-4.18,2.03-6.51,2.49
		c-1.87-1.99-4.54-3.24-7.49-3.24c-6.62,0-11.49,6.18-9.99,12.6C16.1,16.85,8.54,12.77,3.48,6.56c-2.69,4.61-1.39,10.64,3.17,13.7
		c-1.68-0.05-3.27-0.52-4.65-1.28c-0.11,4.75,3.29,9.2,8.23,10.19c-1.44,0.39-3.03,0.48-4.63,0.17c1.3,4.08,5.09,7.04,9.58,7.12
		C10.88,39.84,5.44,41.35,0,40.71z"/>
</g>
<g id="XMLID_2080_">
	<path id="XMLID_2081_" class="st0" d="M165.03,31.59h4.63v-11.6h3.23l0.34-3.88h-3.58c0,0,0-1.45,0-2.21
		c0-0.92,0.18-1.28,1.07-1.28c0.71,0,2.51,0,2.51,0V8.59c0,0-2.64,0-3.21,0c-3.45,0-5,1.52-5,4.42c0,2.53,0,3.1,0,3.1h-2.41v3.93
		h2.41V31.59z"/>
</g>
<g id="XMLID_2023_">
	<g id="XMLID_2024_">
		<path id="XMLID_2076_" class="st0" d="M223.67,11.54c2.79,0,3.12,0.01,4.22,0.06c1.02,0.05,1.57,0.22,1.94,0.36
			c0.49,0.19,0.83,0.42,1.2,0.78c0.37,0.37,0.59,0.71,0.78,1.2c0.14,0.37,0.31,0.92,0.36,1.94c0.05,1.1,0.06,1.43,0.06,4.22
			s-0.01,3.12-0.06,4.22c-0.05,1.02-0.22,1.57-0.36,1.94c-0.19,0.49-0.42,0.83-0.78,1.2c-0.36,0.36-0.71,0.59-1.2,0.78
			c-0.37,0.14-0.92,0.31-1.94,0.36c-1.1,0.05-1.43,0.06-4.22,0.06c-2.79,0-3.12-0.01-4.22-0.06c-1.02-0.05-1.57-0.22-1.94-0.36
			c-0.49-0.19-0.83-0.42-1.2-0.78c-0.37-0.37-0.59-0.71-0.78-1.2c-0.14-0.37-0.31-0.92-0.36-1.94c-0.05-1.1-0.06-1.43-0.06-4.22
			s0.01-3.12,0.06-4.22c0.05-1.02,0.22-1.57,0.36-1.94c0.19-0.49,0.42-0.83,0.78-1.2c0.37-0.37,0.71-0.59,1.2-0.78
			c0.37-0.14,0.92-0.31,1.94-0.36C220.55,11.55,220.88,11.54,223.67,11.54 M223.67,9.66c-2.83,0-3.19,0.01-4.3,0.06
			c-1.11,0.05-1.87,0.23-2.53,0.49c-0.69,0.27-1.27,0.62-1.85,1.2c-0.58,0.58-0.94,1.16-1.2,1.85c-0.26,0.66-0.43,1.42-0.49,2.53
			c-0.05,1.11-0.06,1.47-0.06,4.3c0,2.83,0.01,3.19,0.06,4.3c0.05,1.11,0.23,1.87,0.49,2.53c0.27,0.69,0.62,1.27,1.2,1.85
			c0.58,0.58,1.16,0.94,1.85,1.2c0.66,0.26,1.42,0.43,2.53,0.49c1.11,0.05,1.47,0.06,4.3,0.06c2.83,0,3.19-0.01,4.3-0.06
			c1.11-0.05,1.87-0.23,2.53-0.49c0.69-0.27,1.27-0.62,1.85-1.2c0.58-0.58,0.94-1.16,1.2-1.85c0.26-0.66,0.43-1.42,0.49-2.53
			c0.05-1.11,0.06-1.47,0.06-4.3c0-2.83-0.01-3.19-0.06-4.3c-0.05-1.11-0.23-1.87-0.49-2.53c-0.27-0.69-0.62-1.27-1.2-1.85
			s-1.16-0.94-1.85-1.2c-0.66-0.26-1.42-0.43-2.53-0.49C226.86,9.67,226.5,9.66,223.67,9.66"/>
		<path id="XMLID_2073_" class="st0" d="M223.67,14.73c-2.96,0-5.36,2.4-5.36,5.36c0,2.96,2.4,5.36,5.36,5.36
			c2.96,0,5.36-2.4,5.36-5.36C229.03,17.13,226.63,14.73,223.67,14.73 M223.67,23.57c-1.92,0-3.48-1.56-3.48-3.48
			c0-1.92,1.56-3.48,3.48-3.48c1.92,0,3.48,1.56,3.48,3.48C227.15,22.01,225.59,23.57,223.67,23.57"/>
		<path id="XMLID_2025_" class="st0" d="M230.49,14.52c0,0.69-0.56,1.25-1.25,1.25c-0.69,0-1.25-0.56-1.25-1.25
			c0-0.69,0.56-1.25,1.25-1.25C229.93,13.27,230.49,13.83,230.49,14.52"/>
	</g>
</g>
</svg>
