<?xml version="1.0" encoding="utf-8"?>
<!-- Generator: Adobe Illustrator 24.1.3, SVG Export Plug-In . SVG Version: 6.00 Build 0)  -->
<svg version="1.1" id="Capa_1" xmlns="http://www.w3.org/2000/svg" xmlns:xlink="http://www.w3.org/1999/xlink" x="0px" y="0px"
	 viewBox="0 0 512 512" style="enable-background:new 0 0 512 512;" xml:space="preserve">
<style type="text/css">
	.st0{fill:#FFFFFF;}
</style>
<path class="st0" d="M422.9,157.4l20.1-20.1c7.8-7.8,7.8-20.4,0-28.2c-7.8-7.8-20.4-7.8-28.2,0l-20.1,20.1
	c-33.7-28.1-74.6-45-118.3-49V39.9h19.3c11,0,20-8.9,20-20s-8.9-20-20-20h-78.6c-11,0-20,8.9-20,20s8.9,20,20,20h19.3v40.2
	C127.1,90.1,40,181.9,40,295.6C40,415.2,136.8,512,256.4,512c119.6,0,216.4-96.8,216.4-216.4C472.8,244.5,455.2,196.1,422.9,157.4z
	 M256.4,472.1c-97.3,0-176.4-79.1-176.4-176.4c0-97.3,79.2-176.4,176.4-176.4c97.3,0,176.4,79.1,176.4,176.4
	C432.8,392.9,353.7,472.1,256.4,472.1z M348.9,203.1c7.8,7.8,7.8,20.4,0,28.2l-78.4,78.4c-7.8,7.8-20.4,7.8-28.2,0
	c-7.8-7.8-7.8-20.4,0-28.2l78.4-78.4C328.5,195.2,341.1,195.2,348.9,203.1z"/>
</svg>
