<?xml version="1.0" encoding="utf-8"?>
<!-- Generator: Adobe Illustrator 24.1.3, SVG Export Plug-In . SVG Version: 6.00 Build 0)  -->
<svg version="1.1" id="Capa_1" xmlns="http://www.w3.org/2000/svg" xmlns:xlink="http://www.w3.org/1999/xlink" x="0px" y="0px"
	 viewBox="0 0 50 50" style="enable-background:new 0 0 50 50;" xml:space="preserve">
<style type="text/css">
	.st0{fill:#FFFFFF;}
</style>
<g>
	<g>
		<path class="st0" d="M49.9,11.9L46.3,1.2C46.1,0.5,45.4,0,44.6,0H5.4C4.6,0,3.9,0.5,3.7,1.2L0.1,11.9C0,12.1,0,12.3,0,12.5
			c0,0,0,0,0,0v1.8c0,2.8,1.3,5.4,3.6,7.1c0,0,0,0,0,0v23.2c0,3,2.4,5.4,5.4,5.4h32.1c3,0,5.4-2.4,5.4-5.4V21.4c0,0,0,0,0,0
			c2.2-1.7,3.6-4.3,3.6-7.1v-1.8c0,0,0,0,0,0C50,12.3,50,12.1,49.9,11.9z M37.5,3.6h5.9l2.4,7.1h-8.2V3.6z M26.8,3.6h7.1v7.1h-7.1
			V3.6z M16.1,3.6h7.1v7.1h-7.1V3.6z M6.6,3.6h5.9v7.1H4.3L6.6,3.6z M28.6,46.4h-7.1V32.1h7.1L28.6,46.4L28.6,46.4z M42.9,44.6
			c0,1-0.8,1.8-1.8,1.8h-8.9V30.4c0-1-0.8-1.8-1.8-1.8H19.6c-1,0-1.8,0.8-1.8,1.8v16.1H8.9c-1,0-1.8-0.8-1.8-1.8V23
			c2.5,0.5,5.1-0.1,7.1-1.6c3.2,2.3,7.5,2.3,10.7,0c3.2,2.3,7.5,2.3,10.7,0c2,1.6,4.6,2.2,7.1,1.6L42.9,44.6L42.9,44.6z M41.1,19.6
			c-1.5,0-3-0.7-4-1.9c-0.6-0.7-1.8-0.8-2.5-0.2c-0.1,0.1-0.1,0.1-0.2,0.2c-2,2.2-5.4,2.4-7.6,0.4c-0.1-0.1-0.3-0.3-0.4-0.4
			c-0.7-0.7-1.9-0.8-2.6-0.1c0,0-0.1,0.1-0.1,0.1c-2,2.2-5.4,2.4-7.6,0.4c-0.1-0.1-0.3-0.3-0.4-0.4C14.9,17,13.8,17,13,17.7
			c0,0-0.1,0.1-0.1,0.1c-1,1.2-2.5,1.9-4,1.9c-3,0-5.4-2.4-5.4-5.4h42.9C46.4,17.2,44,19.6,41.1,19.6z"/>
	</g>
</g>
</svg>
