<?xml version="1.0" encoding="utf-8"?>
<!-- Generator: Adobe Illustrator 24.1.3, SVG Export Plug-In . SVG Version: 6.00 Build 0)  -->
<svg version="1.1" id="Capa_1" xmlns="http://www.w3.org/2000/svg" xmlns:xlink="http://www.w3.org/1999/xlink" x="0px" y="0px"
	 viewBox="0 0 512 512" style="enable-background:new 0 0 512 512;" xml:space="preserve">
<g>
	<g>
		<g>
			<path d="M252.8,447.4c0,35.6,29,64.6,64.6,64.6s64.6-29,64.6-64.6s-29-64.6-64.6-64.6C281.8,382.7,252.8,411.7,252.8,447.4z
				 M291.6,447.4c0-14.3,11.6-25.9,25.9-25.9c14.3,0,25.9,11.6,25.9,25.9s-11.6,25.9-25.9,25.9C303.2,473.2,291.6,461.6,291.6,447.4
				z"/>
			<path d="M61.4,447.4c0,35.6,29,64.6,64.6,64.6s64.6-29,64.6-64.6s-29-64.6-64.6-64.6S61.4,411.7,61.4,447.4z M100.2,447.4
				c0-14.3,11.6-25.9,25.9-25.9c14.3,0,25.9,11.6,25.9,25.9s-11.6,25.9-25.9,25.9S100.2,461.6,100.2,447.4z"/>
			<path d="M10.2,142.7l45.3,195.9c2,8.8,9.9,15,18.9,15h271.5c9.3,0,17.2-6.5,19-15.6l56.9-287.7l64.6-11.8
				c10.5-1.9,17.5-12,15.6-22.6C500,5.4,490-1.6,479.4,0.3l-77.6,14.2c-7.8,1.4-14,7.5-15.5,15.3L368.7,119H29.1
				c-5.9,0-11.5,2.7-15.2,7.3C10.2,130.9,8.9,136.9,10.2,142.7z M53.5,157.7H361l-31.1,157.1H89.8L53.5,157.7z"/>
		</g>
	</g>
</g>
</svg>
