<svg id="Capa_1" enable-background="new 0 0 512 512" height="512" viewBox="0 0 512 512" width="512" xmlns="http://www.w3.org/2000/svg" xmlns:xlink="http://www.w3.org/1999/xlink"><linearGradient id="lg1"><stop offset="0" stop-color="#364aff"/><stop offset="1" stop-color="#fc54ff"/></linearGradient><linearGradient id="SVGID_1_" gradientUnits="userSpaceOnUse" x1="74.981" x2="437.02" xlink:href="#lg1" y1="437.019" y2="74.98"/><radialGradient id="SVGID_2_" cx="341.165" cy="175.78" gradientUnits="userSpaceOnUse" r="375.416"><stop offset=".095" stop-color="#8d00db" stop-opacity=".66"/><stop offset=".2808" stop-color="#b41de8" stop-opacity=".521"/><stop offset=".4684" stop-color="#d335f2" stop-opacity=".38"/><stop offset=".6505" stop-color="#ea46f9" stop-opacity=".244"/><stop offset=".8231" stop-color="#f750fd" stop-opacity=".115"/><stop offset=".9758" stop-color="#fc54ff" stop-opacity="0"/></radialGradient><linearGradient id="lg2"><stop offset="0" stop-color="#fc54ff"/><stop offset=".4062" stop-color="#fd9bff"/><stop offset="1" stop-color="#fff"/></linearGradient><linearGradient id="SVGID_3_" gradientTransform="matrix(.707 .707 -.707 .707 256 -106.039)" gradientUnits="userSpaceOnUse" x1="317.182" x2="317.182" xlink:href="#lg2" y1="669.898" y2="171.241"/><linearGradient id="SVGID_4_" gradientTransform="matrix(.707 .707 -.707 .707 256 -106.039)" gradientUnits="userSpaceOnUse" x1="266.317" x2="343.316" y1="371.741" y2="371.741"><stop offset="0" stop-color="#8d00db" stop-opacity=".66"/><stop offset=".0161" stop-color="#9204dd" stop-opacity=".649"/><stop offset=".1296" stop-color="#b31de7" stop-opacity=".574"/><stop offset=".2525" stop-color="#cd31f0" stop-opacity=".493"/><stop offset=".3862" stop-color="#e240f7" stop-opacity=".405"/><stop offset=".536" stop-color="#f14cfb" stop-opacity=".306"/><stop offset=".7149" stop-color="#f952fe" stop-opacity=".188"/><stop offset="1" stop-color="#fc54ff" stop-opacity="0"/></linearGradient><linearGradient id="SVGID_5_" gradientTransform="matrix(.707 .707 -.707 .707 256 -106.039)" gradientUnits="userSpaceOnUse" x1="268.189" x2="268.189" xlink:href="#lg2" y1="1035.325" y2="-169.414"/><linearGradient id="SVGID_6_" gradientTransform="matrix(.707 .707 -.707 .707 256 -106.039)" gradientUnits="userSpaceOnUse" x1="256" x2="256" xlink:href="#lg2" y1="1109.937" y2="-47.506"/><linearGradient id="SVGID_7_" gradientTransform="matrix(.707 .707 -.707 .707 256 -106.039)" gradientUnits="userSpaceOnUse" x1="256" x2="256" xlink:href="#lg2" y1="736.928" y2="-39.452"/><linearGradient id="SVGID_8_" gradientTransform="matrix(.707 .707 -.707 .707 256 -106.039)" gradientUnits="userSpaceOnUse" x1="256" x2="256" xlink:href="#lg2" y1="292.081" y2="-3.501"/><linearGradient id="SVGID_9_" gradientUnits="userSpaceOnUse" x1="265.522" x2="420.274" xlink:href="#lg2" y1="246.586" y2="91.834"/><linearGradient id="SVGID_10_" gradientUnits="userSpaceOnUse" x1="287.143" x2="406.691" xlink:href="#lg1" y1="224.857" y2="105.309"/><radialGradient id="SVGID_11_" cx="359.912" cy="152.089" gradientUnits="userSpaceOnUse" r="29.747"><stop offset=".0242" stop-color="#fc54ff" stop-opacity="0"/><stop offset=".1934" stop-color="#f750fd" stop-opacity=".115"/><stop offset=".3845" stop-color="#ea46f9" stop-opacity=".244"/><stop offset=".5864" stop-color="#d335f2" stop-opacity=".38"/><stop offset=".7941" stop-color="#b41de8" stop-opacity=".521"/><stop offset="1" stop-color="#8d00db" stop-opacity=".66"/></radialGradient><g><circle cx="256" cy="256" fill="url(#SVGID_1_)" r="256"/><circle cx="256" cy="256" fill="url(#SVGID_2_)" r="256"/><path d="m267.353 385.44c3.568-3.503 7.133-7.009 10.695-10.518 5.895-5.805 5.675-15.251-.446-21.122-14.801-14.145-29.483-28.409-44.046-42.792-28.992 28.915-58.026 57.788-87.104 86.618 14.548 13.966 29.482 27.545 44.803 40.737 6.35 5.453 16.408 5.154 22.363-.592 3.597-3.474 7.191-6.951 10.782-10.431 5.944-5.755 5.615-14.942-.654-20.577-2.526-2.262-5.044-4.533-7.553-6.811-2.08-1.887-2.139-5.011-.143-6.972 4.819-4.731 9.636-9.467 14.448-14.205 1.994-1.963 5.276-1.995 7.342-.078 2.492 2.315 4.989 4.623 7.493 6.926 6.227 5.712 16.117 5.609 22.02-.183z" fill="url(#SVGID_3_)"/><path d="m267.353 385.44c3.568-3.503 7.133-7.009 10.695-10.518 5.895-5.805 5.675-15.251-.446-21.122-14.801-14.145-29.483-28.409-44.046-42.792-28.992 28.915-58.026 57.788-87.104 86.618 14.548 13.966 29.482 27.545 44.803 40.737 6.35 5.453 16.408 5.154 22.363-.592 3.597-3.474 7.191-6.951 10.782-10.431 5.944-5.755 5.615-14.942-.654-20.577-2.526-2.262-5.044-4.533-7.553-6.811-2.08-1.887-2.139-5.011-.143-6.972 4.819-4.731 9.636-9.467 14.448-14.205 1.994-1.963 5.276-1.995 7.342-.078 2.492 2.315 4.989 4.623 7.493 6.926 6.227 5.712 16.117 5.609 22.02-.183z" fill="url(#SVGID_4_)"/><path d="m255.561 234.698c-53.465 53.44-106.834 106.978-160.104 160.612 1.227 5.033 3.747 9.755 7.613 13.62 11.701 11.699 31.348 11.186 43.4-.693 42.236-41.735 84.352-83.591 126.347-125.568 5.754-5.751 13.565-8.983 21.689-8.957-12.956-13.031-25.937-26.035-38.945-39.014z" fill="url(#SVGID_5_)"/><path d="m103.764 365.53c-7.972 8.073-10.795 19.559-8.307 29.78 9.986 2.672 21.316-.088 29.357-8.124 34.88-34.839 69.762-69.679 104.642-104.518 5.766-5.759 13.583-8.997 21.732-8.997 29.033-.007 58.071.002 86.626.343 25.195.278 49.841-8.846 68.61-28.103 37.028-38.236 40.241-104.776 2.505-142.841-38.065-37.737-104.603-34.525-142.841 2.505-19.256 18.767-28.382 43.415-28.103 68.61.171 14.335.258 28.792.302 43.309.024 8.126-3.206 15.935-8.957 21.689-41.975 41.995-83.831 84.111-125.566 126.347z" fill="url(#SVGID_6_)"/><path d="m396.199 234.546c-31.848 32.601-84.571 31.86-117.731-1.015-32.873-33.162-33.617-85.882-1.015-117.731 32.604-31.75 88.293-33.973 120.604-1.859 32.118 32.31 29.89 88.003-1.858 120.605z" fill="url(#SVGID_7_)"/><path d="m385.879 223.277c-26.33 26.841-69.454 26.302-96.539-.617-26.922-27.082-27.457-70.209-.617-96.539 26.838-26.272 71.95-27.721 98.463-1.307 26.412 26.515 24.963 71.626-1.307 98.463z" fill="url(#SVGID_8_)"/><path d="m401.209 192.308c-26.414 26.983-69.345 26.416-96.485-.356-17.251-17.121-23.733-40.794-19.31-62.31-23.402 26.484-21.843 67.117 3.925 93.018 27.082 26.921 70.21 27.457 96.539.617 9.578-9.743 15.755-21.82 18.602-34.572-1.047 1.227-2.125 2.436-3.271 3.603z" fill="url(#SVGID_9_)"/><path d="m375.995 168.252c-8.955 9.031-23.353 8.982-32.296.049-8.934-8.944-8.982-23.34.049-32.296 9.025-8.948 23.702-9.182 32.566-.319 8.865 8.861 8.63 23.54-.319 32.566z" fill="url(#SVGID_10_)"/><path d="m375.995 168.252c-8.955 9.031-23.353 8.982-32.296.049-8.934-8.944-8.982-23.34.049-32.296 9.025-8.948 23.702-9.182 32.566-.319 8.865 8.861 8.63 23.54-.319 32.566z" fill="url(#SVGID_11_)"/></g></svg>