<?xml version="1.0" encoding="iso-8859-1"?>
<!-- Generator: Adobe Illustrator 19.0.0, SVG Export Plug-In . SVG Version: 6.00 Build 0)  -->
<svg version="1.1" id="Capa_1" xmlns="http://www.w3.org/2000/svg" xmlns:xlink="http://www.w3.org/1999/xlink" x="0px" y="0px"
	 viewBox="0 0 384.009 384.009" style="enable-background:new 0 0 384.009 384.009;" xml:space="preserve">
<g>
	<g>
		<path d="M383.704,328.885l-17.312-87.216C377.928,222.516,384,201.34,384,180.005c0-78.056-87.928-144-192-144
			s-192,65.944-192,144c0,79.4,82.544,144,184,144c13.704,0,45.832-1.312,61.48-4.464c11.496-2.256,22.864-5.464,33.888-9.568
			c40.544,16.16,81.12,36.168,81.544,36.376c2.248,1.112,4.672,1.656,7.088,1.656c3.456,0,6.888-1.12,9.736-3.304
			C382.568,340.997,384.888,334.869,383.704,328.885z M333.744,241.596l12.368,62.336c-16.8-7.72-38.904-17.488-60.872-26.032
			c-1.848-0.72-3.896-1.088-5.88-1.088c-2.064,0-4.112,0.4-6.024,1.176c-10.992,4.472-22.432,7.888-34.088,10.168
			c-11.68,2.352-40.52,3.848-55.248,3.848c-83.816,0-152-50.24-152-112c0-59.664,74.768-112,160-112s160,52.336,160,112
			c0,17.336-5.32,33.992-15.816,49.52C333.792,233.06,332.92,237.412,333.744,241.596z"/>
	</g>
</g>
<g>
	<g>
		<path d="M240,132.005H112c-8.832,0-16,7.168-16,16c0,8.832,7.168,16,16,16h128c8.832,0,16-7.168,16-16
			C256,139.172,248.832,132.005,240,132.005z"/>
	</g>
</g>
<g>
	<g>
		<path d="M208,196.005h-96c-8.832,0-16,7.168-16,16c0,8.832,7.168,16,16,16h96c8.832,0,16-7.168,16-16
			C224,203.172,216.832,196.005,208,196.005z"/>
	</g>
</g>
<g>
</g>
<g>
</g>
<g>
</g>
<g>
</g>
<g>
</g>
<g>
</g>
<g>
</g>
<g>
</g>
<g>
</g>
<g>
</g>
<g>
</g>
<g>
</g>
<g>
</g>
<g>
</g>
<g>
</g>
</svg>
