<svg id="Layer_5" enable-background="new 0 0 64 64" height="512" viewBox="0 0 64 64" width="512" xmlns="http://www.w3.org/2000/svg"><path d="m40.87 58.14-3.86-19.32c-.31.12-.65.18-1.01.18-.83 0-1.58-.34-2.12-.88s-.88-1.29-.88-2.12v-1h-5-5v1l-4.87 22.14c-.48 1.58.42 3.26 2.01 3.73.28.09.57.13.86.13 1.31 0 2.5-.88 2.87-2.14l5.95-20.83c.91.79 1.55 1.86 1.79 3.07l3.52 17.76c.37 1.26 1.56 2.14 2.87 2.14.29 0 .58-.04.86-.13 1.59-.47 2.49-2.15 2.01-3.73z" fill="#838f9b"/><g fill="#5cd6b3"><path d="m33 29v6h-5-5-6-12l-3-2v-2l3-2h17.98z"/><path d="m17 35v8h-4v-4h-4v4h-4v-8z"/><path d="m52 22c5.52 0 10 4.48 10 10s-4.48 10-10 10c-4.48 0-8.27-2.94-9.54-7h-3.46v-6h3.46c1.27-4.06 5.06-7 9.54-7zm6 10c0-1.66-1.34-3-3-3s-3 1.34-3 3 1.34 3 3 3 3-1.34 3-3z"/></g><path d="m24.87 18.85c-1.17 1.39-1.88 3.18-1.88 5.14v.62c-6.17-2.53-9.99-8.2-9.99-13.61 0-1.65 1.35-3 3-3s3 1.35 3 3c0 2.98 2.32 6.19 5.87 7.85z" fill="#fcd770"/><path d="m33.88 38.12c-.54-.54-.88-1.29-.88-2.12v-1-6h-10.02l.01-4.39v-.62c0-1.96.71-3.75 1.88-5.14 1.47-1.74 3.67-2.85 6.12-2.85 2.21 0 4.22.9 5.67 2.34 1.44 1.45 2.34 3.46 2.34 5.67v4.99 6 1c0 1.3-.83 2.41-1.99 2.82-.31.12-.65.18-1.01.18-.83 0-1.58-.34-2.12-.88z" fill="#fcd770"/><circle cx="30" cy="9" fill="#f0d0b4" r="7"/><path d="m55 28c-2.206 0-4 1.794-4 4s1.794 4 4 4 4-1.794 4-4-1.794-4-4-4zm0 6c-1.103 0-2-.897-2-2s.897-2 2-2 2 .897 2 2-.897 2-2 2z"/><path d="m52 21c-4.581 0-8.611 2.784-10.249 7h-1.751v-3.994c0-3.76-2.318-6.986-5.599-8.332 2.166-1.433 3.599-3.888 3.599-6.674 0-4.411-3.589-8-8-8s-8 3.589-8 8c0 3.166 1.854 5.901 4.529 7.196-.679.39-1.305.86-1.858 1.407-2.774-1.529-4.671-4.155-4.671-6.603 0-2.206-1.794-4-4-4s-4 1.794-4 4c0 5.884 3.99 11.529 9.985 14.256l-.004 2.744h-17.284l-3.697 2.465v3.07l3 2v8.465h6v-4h2v4h6v-8h3.976l-4.808 21.853c-.632 2.112.571 4.346 2.681 4.978.374.112.761.169 1.151.169 1.752 0 3.328-1.172 3.836-2.864l5.41-18.964c.176.351.308.728.385 1.124l3.536 17.854c.505 1.678 2.081 2.85 3.833 2.85.39 0 .777-.057 1.15-.169 2.11-.632 3.313-2.866 2.704-4.888l-3.714-18.575c1.114-.711 1.86-1.951 1.86-3.368h1.751c1.638 4.216 5.668 7 10.249 7 6.065 0 11-4.935 11-11s-4.935-11-11-11zm-28-12c0-3.309 2.691-6 6-6s6 2.691 6 6-2.691 6-6 6-6-2.691-6-6zm-10 2c0-1.103.897-2 2-2s2 .897 2 2c0 3.11 2.129 6.283 5.395 8.194-.726 1.142-1.209 2.453-1.357 3.864-4.793-2.509-8.038-7.286-8.038-12.058zm9.987 12.995c.006-3.857 3.149-6.995 7.006-6.995 3.863 0 7.007 3.143 7.007 7.006v11.994c0 1.103-.897 2-2 2s-2-.897-2-2v-10.859c0-1.676-.832-3.231-2.227-4.16l-1.219-.812-1.109 1.664 1.219.812c.837.557 1.336 1.49 1.336 2.496v2.859h-8.019zm-20.987 7.54 2.303-1.535h26.697v4h-26.697l-2.303-1.535zm13 10.465h-2v-4h-6v4h-2v-6h10zm23.916 16.426c.315 1.056-.285 2.173-1.341 2.489-1.033.31-2.188-.336-2.468-1.248l-3.513-17.76c-.448-2.266-2.087-4.126-4.278-4.857l-.633 1.897c.35.117.678.279.982.474l-5.749 20.152c-.308 1.026-1.455 1.652-2.492 1.341-1.055-.316-1.655-1.433-1.321-2.561l4.874-22.14.004-.213h8.019c0 2.206 1.794 4 4 4 .076 0 .147-.018.222-.023zm12.084-17.426c-3.952 0-7.403-2.532-8.587-6.3l-.22-.7h-3.193v-4h3.193l.22-.7c1.184-3.768 4.635-6.3 8.587-6.3 4.963 0 9 4.038 9 9s-4.037 9-9 9z"/></svg>