<?xml version="1.0"?>
<svg xmlns="http://www.w3.org/2000/svg" height="512px" viewBox="0 0 42 59" width="512px" class=""><g><g id="Page-1" fill="none" fill-rule="evenodd"><g id="028---Vet-Location" fill-rule="nonzero"><path id="Shape" d="m42 21c-.0062234 2.3194658-.2542305 4.6319638-.74 6.9-3.73 17.51-20.26 30.1-20.26 30.1s-16.53-12.59-20.26-30.1c-.48576953-2.2680362-.73377657-4.5805342-.74-6.9 0-11.59797975 9.40202025-21 21-21 11.5979797 0 21 9.40202025 21 21z" fill="#c03a2b" data-original="#C03A2B" class="" style="fill:#00AF80" data-old_color="#c03a2b"/><path id="Shape" d="m42 21c-.0062234 2.3194658-.2542305 4.6319638-.74 6.9-3.5877458 7.9723943-11.517518 13.0995722-20.26 13.0995722s-16.67225422-5.1271779-20.26-13.0995722c-.48576953-2.2680362-.73377657-4.5805342-.74-6.9 0-11.59797975 9.40202025-21 21-21 11.5979797 0 21 9.40202025 21 21z" fill="#e64c3c" data-original="#E64C3C" class="" style="fill:#00AF80" data-old_color="#e64c3c"/><circle id="Oval" cx="21" cy="21" fill="#ecf0f1" r="17" data-original="#ECF0F1" class="" style="fill:#ECF0F1"/><path id="Shape" d="m29 59h-16c-.5522847 0-1-.4477153-1-1s.4477153-1 1-1h16c.5522847 0 1 .4477153 1 1s-.4477153 1-1 1z" fill="#802f34" data-original="#802F34" class="active-path" style="fill:#00AF80" data-old_color="#802f34"/><g fill="#3f5c6c"><path id="Shape" d="m21 31c1.684 0 2.526 1 4.21 1 3.368 0 3.368-4 1.684-6s-2.526-6-5.894-6-4.21 4-5.894 6-1.684 6 1.684 6c1.684 0 2.526-1 4.21-1z" data-original="#3F5C6C" class="" style="fill:#00AF80" data-old_color="#3F5C6C"/><ellipse id="Oval" cx="16" cy="13.975" rx="3" ry="4" transform="matrix(.985 -.171 .171 .985 -2.149 2.933)" data-original="#3F5C6C" class="" style="fill:#00AF80" data-old_color="#3F5C6C"/><ellipse id="Oval" cx="10.549" cy="21.96" rx="2.5" ry="3" transform="matrix(.955 -.297 .297 .955 -6.04 4.118)" data-original="#3F5C6C" class="" style="fill:#00AF80" data-old_color="#3F5C6C"/><ellipse id="Oval" cx="26.034" cy="13.975" rx="4" ry="3" transform="matrix(.171 -.985 .985 .171 7.824 37.245)" data-original="#3F5C6C" class="" style="fill:#00AF80" data-old_color="#3F5C6C"/><ellipse id="Oval" cx="31.451" cy="21.96" rx="3" ry="2.5" transform="matrix(.297 -.955 .955 .297 1.149 45.48)" data-original="#3F5C6C" class="" style="fill:#00AF80" data-old_color="#3F5C6C"/></g></g></g></g> </svg>
