<svg id="Layer_1" enable-background="new 0 0 512 512" height="512" viewBox="0 0 512 512" width="512" xmlns="http://www.w3.org/2000/svg"><g id="XMLID_859_"><g id="XMLID_514_"><path id="XMLID_532_" d="m435 0h-284c-27.57 0-50 22.43-50 50v116h-64c-5.523 0-10 4.477-10 10v160c0 5.522 4.477 10 10 10h64v116c0 27.57 22.43 50 50 50h284c27.57 0 50-22.43 50-50v-412c0-27.57-22.43-50-50-50zm-388 186h320v140h-320zm418 276c0 16.542-13.458 30-30 30h-284c-16.542 0-30-13.458-30-30v-116h28v108c0 5.522 4.477 10 10 10h268c5.523 0 10-4.478 10-10v-149c0-5.522-4.477-10-10-10s-10 4.478-10 10v139h-248v-98h208c5.523 0 10-4.478 10-10v-160c0-5.523-4.477-10-10-10h-208v-98h248v147c0 5.523 4.477 10 10 10s10-4.477 10-10v-157c0-5.523-4.477-10-10-10h-268c-5.523 0-10 4.477-10 10v108h-28v-116c0-16.542 13.458-30 30-30h284c16.542 0 30 13.458 30 30z"/><path id="XMLID_534_" d="m251.769 306c5.523 0 10-4.478 10-10v-80c0-5.523-4.477-10-10-10s-10 4.477-10 10v80c0 5.522 4.477 10 10 10z"/><path id="XMLID_535_" d="m111.451 226.365c5.523 0 10-4.477 10-10s-4.477-10-10-10h-33.401c-5.523 0-10 4.477-10 10v79.27c0 5.522 4.477 10 10 10h33.401c5.523 0 10-4.478 10-10s-4.477-10-10-10h-23.401v-19.635h20.938c5.523 0 10-4.478 10-10 0-5.523-4.477-10-10-10h-20.938v-19.635z"/><path id="XMLID_536_" d="m181.626 270.531 21.965 31.223c1.947 2.768 5.042 4.247 8.188 4.247 1.988 0 3.996-.592 5.745-1.822 4.518-3.178 5.603-9.415 2.425-13.933l-26.087-37.083 22.123-31.404c3.181-4.515 2.099-10.754-2.416-13.935-4.516-3.179-10.753-2.099-13.935 2.416l-17.996 25.546-17.967-25.541c-3.178-4.517-9.416-5.603-13.933-2.425s-5.603 9.416-2.425 13.933l22.09 31.401-26.126 37.086c-3.181 4.515-2.099 10.753 2.416 13.934 1.751 1.233 3.76 1.826 5.75 1.826 3.143 0 6.236-1.478 8.184-4.242z"/><path id="XMLID_537_" d="m291.769 226h12.001v70c0 5.522 4.477 10 10 10s10-4.478 10-10v-70h12.18c5.523 0 10-4.477 10-10s-4.477-10-10-10h-44.181c-5.523 0-10 4.477-10 10s4.477 10 10 10z"/><path id="XMLID_541_" d="m427 250c-2.63 0-5.21 1.07-7.07 2.93s-2.93 4.44-2.93 7.07 1.07 5.21 2.93 7.069c1.86 1.86 4.44 2.931 7.07 2.931s5.21-1.07 7.07-2.931c1.86-1.859 2.93-4.439 2.93-7.069s-1.07-5.21-2.93-7.07-4.44-2.93-7.07-2.93z"/></g></g></svg>