<?xml version="1.0" encoding="windows-1252"?>
<!-- Generator: Adobe Illustrator 19.0.0, SVG Export Plug-In . SVG Version: 6.00 Build 0)  -->
<svg version="1.1" id="Capa_1" xmlns="http://www.w3.org/2000/svg" xmlns:xlink="http://www.w3.org/1999/xlink" x="0px" y="0px" viewBox="0 0 512 512" style="enable-background:new 0 0 512 512;" xml:space="preserve">
<path style="fill:#EEF8FF;" d="M256.015,28.769c-125.496,0-227.23,101.735-227.23,227.231S130.52,483.231,256.016,483.231  S483.246,381.496,483.246,256S381.512,28.769,256.015,28.769z"/>
<path style="fill:#CCDFED;" d="M256.015,45.594c-8.089,0-16.067,0.473-23.919,1.361C337.035,58.833,418.583,147.886,418.583,256  c0,108.115-81.548,197.167-186.487,209.044c7.852,0.889,15.83,1.361,23.919,1.361c116.204,0,210.406-94.202,210.406-210.406  S372.219,45.594,256.015,45.594z"/>
<path style="fill:#2C5871;" d="M176.555,117.466c0-8.937,8.087-17.024,20.854-17.024h85.546c54.051,0,96.612,25.961,96.612,95.76  v2.554c0,69.799-43.837,96.612-100.016,96.612h-47.667v98.739c0,11.491-14.045,17.45-27.664,17.45  c-14.045,0-27.664-5.959-27.664-17.45V117.466H176.555z M231.883,148.961v102.996h47.667c27.664,0,44.688-15.747,44.688-48.944  v-5.107c0-33.197-17.024-48.944-44.688-48.944h-47.667V148.961z"/>
<path style="fill:#FF4C4C;" d="M256.015,7.295C118.659,7.295,7.31,118.644,7.31,256s111.349,248.706,248.705,248.706  S504.721,393.356,504.721,256S393.372,7.295,256.015,7.295z M463.578,256c0,49.333-17.222,94.636-45.966,130.253L125.763,94.404  c35.616-28.745,80.92-45.967,130.253-45.967C370.649,48.437,463.578,141.366,463.578,256z M48.453,256  c0-49.333,17.222-94.636,45.966-130.253l291.849,291.849c-35.617,28.745-80.92,45.966-130.253,45.966  C141.382,463.563,48.453,370.634,48.453,256z"/>
<path style="fill:#F33A3A;" d="M256.015,7.295c-7.925,0-15.758,0.387-23.493,1.112c88.029,8.249,162.715,62.37,199.919,138.224  c19.73,31.76,31.136,69.23,31.136,109.37c0,40.139-11.403,77.61-31.135,109.367c-37.203,75.855-111.891,129.976-199.921,138.226  c7.735,0.725,15.568,1.112,23.493,1.112c137.356,0,248.705-111.349,248.705-248.706C504.721,118.644,393.372,7.295,256.015,7.295z"/>
<path d="M417.611,393.547c0.129,0,0.259-0.003,0.388-0.01c2.066-0.11,3.989-1.092,5.289-2.703  c30.685-38.021,47.584-85.906,47.584-134.834c0-57.391-22.349-111.346-62.93-151.927s-94.536-62.93-151.927-62.93  c-48.928,0-96.813,16.899-134.834,47.584c-1.61,1.3-2.593,3.222-2.703,5.289c-0.11,2.066,0.663,4.082,2.126,5.545l291.85,291.849  C413.826,392.782,415.682,393.547,417.611,393.547z M256.015,55.732c110.428,0,200.268,89.84,200.268,200.268  c0,42.886-13.928,84.911-39.371,119.237L136.778,95.103C171.104,69.66,213.13,55.732,256.015,55.732z"/>
<path d="M7.751,239.362c0.236,0.022,0.469,0.033,0.701,0.033c3.717,0,6.893-2.828,7.253-6.603  c5.67-59.475,33.183-114.528,77.471-155.016c44.572-40.748,102.402-63.188,162.839-63.188c60.361,0,118.138,22.391,162.687,63.049  c44.26,40.394,71.812,95.341,77.582,154.72c0.389,4.01,3.954,6.946,7.966,6.555c4.01-0.389,6.945-3.956,6.555-7.966  c-6.119-62.98-35.335-121.253-82.267-164.086C381.294,23.746,320.024,0,256.015,0c-64.09,0-125.416,23.798-172.683,67.01  C36.371,109.942,7.196,168.326,1.182,231.408C0.8,235.419,3.741,238.98,7.751,239.362z"/>
<path d="M504.258,272.958c-4.009-0.384-7.574,2.549-7.962,6.559c-5.741,59.406-33.282,114.384-77.55,154.805  c-44.555,40.683-102.348,63.089-162.731,63.089c-60.409,0-118.22-22.423-162.784-63.137C48.954,393.82,21.427,338.806,15.72,279.366  c-0.386-4.01-3.946-6.954-7.958-6.564c-4.01,0.385-6.949,3.948-6.564,7.958c6.053,63.044,35.243,121.388,82.193,164.284  C130.65,488.221,191.955,512,256.015,512c64.032,0,125.318-23.76,172.568-66.905c46.94-42.861,76.145-101.166,82.234-164.175  C511.205,276.91,508.268,273.345,504.258,272.958z"/>
<path d="M94.031,118.463c-2.066,0.11-3.989,1.092-5.289,2.703C58.057,159.187,41.158,207.072,41.158,256  c0,57.391,22.349,111.346,62.93,151.927s94.536,62.93,151.927,62.93c48.928,0,96.813-16.899,134.834-47.584  c1.61-1.3,2.593-3.222,2.703-5.289c0.11-2.066-0.663-4.082-2.126-5.545L99.577,120.589  C98.114,119.125,96.095,118.351,94.031,118.463z M256.015,456.268c-110.428,0-200.268-89.84-200.268-200.268  c0-42.885,13.929-84.911,39.371-119.238l280.135,280.135C340.927,442.34,298.901,456.268,256.015,456.268z"/>
<path d="M204.219,418.852c8.369,0,16.363-1.9,22.509-5.349c8.028-4.506,12.45-11.394,12.45-19.395v-98.739  c0-4.029-3.266-7.294-7.294-7.294c-4.029,0-7.295,3.266-7.295,7.294v98.739c0,6.272-10.574,10.155-20.37,10.155  c-10.013,0-20.37-3.799-20.37-10.155v-157.34c0-4.029-3.266-7.294-7.294-7.294s-7.295,3.266-7.295,7.294v157.339  C169.26,408.676,183.636,418.852,204.219,418.852z"/>
<path d="M356.333,116.657c-17.836-15.6-42.524-23.51-73.378-23.51h-85.546c-15.285,0-27.088,9.539-28.067,22.683  c-0.299,4.017,2.715,7.517,6.733,7.816c4.014,0.3,7.517-2.715,7.816-6.733c0.339-4.56,5.092-9.177,13.518-9.177h85.546  c40.746,0,89.317,15.348,89.317,88.466v2.554c0,35.646-11.909,61.043-35.395,75.483c-3.432,2.11-4.504,6.603-2.394,10.035  c1.378,2.241,3.77,3.475,6.221,3.475c1.303,0,2.622-0.349,3.813-1.081c27.701-17.032,42.343-47.431,42.343-87.911v-2.554  C386.862,161.138,376.59,134.375,356.333,116.657z"/>
<path d="M279.551,141.666h-47.667c-4.029,0-7.295,3.266-7.295,7.294v22.678c0,4.029,3.266,7.294,7.295,7.294  c4.029,0,7.294-3.266,7.294-7.294v-15.384h40.373c24.812,0,37.393,14.013,37.393,41.65v5.107c0,17.639-5.122,29.812-15.225,36.184  c-3.407,2.149-4.428,6.653-2.279,10.061c1.387,2.199,3.755,3.404,6.177,3.404c1.33,0,2.676-0.364,3.884-1.126  c18.209-11.484,22.031-32.726,22.031-48.524v-5.107C331.533,162.164,312.586,141.666,279.551,141.666z"/>
<g>
</g>
<g>
</g>
<g>
</g>
<g>
</g>
<g>
</g>
<g>
</g>
<g>
</g>
<g>
</g>
<g>
</g>
<g>
</g>
<g>
</g>
<g>
</g>
<g>
</g>
<g>
</g>
<g>
</g>
</svg>