<?xml version="1.0" encoding="windows-1252"?>
<!-- Generator: Adobe Illustrator 19.0.0, SVG Export Plug-In . SVG Version: 6.00 Build 0)  -->
<svg version="1.1" id="Capa_1" xmlns="http://www.w3.org/2000/svg" xmlns:xlink="http://www.w3.org/1999/xlink" x="0px" y="0px" viewBox="0 0 512 512" style="enable-background:new 0 0 512 512;" xml:space="preserve">
<path style="fill:#EEF8FF;" d="M255.988,28.769C130.492,28.769,28.757,130.504,28.757,256s101.735,227.231,227.231,227.231  S483.219,381.496,483.219,256S381.484,28.769,255.988,28.769z"/>
<path style="fill:#CCDFED;" d="M255.988,45.594c-8.089,0-16.067,0.473-23.919,1.361C337.008,58.833,418.556,147.886,418.556,256  c0,108.115-81.548,197.167-186.487,209.044c7.852,0.889,15.83,1.361,23.919,1.361c116.204,0,210.406-94.202,210.406-210.406  S372.192,45.594,255.988,45.594z"/>
<path style="fill:#FF4C4C;" d="M255.988,7.295C118.632,7.295,7.283,118.644,7.283,256s111.349,248.705,248.705,248.705  S504.694,393.356,504.694,256S393.344,7.295,255.988,7.295z M255.988,463.563c-114.634,0-207.563-92.929-207.563-207.563  S141.354,48.437,255.988,48.437S463.551,141.366,463.551,256S370.622,463.563,255.988,463.563z"/>
<path style="fill:#F33A3A;" d="M255.988,7.295c-7.334,0-14.588,0.336-21.76,0.958c102.065,8.849,186.489,79.327,215.838,174.039  c8.705,22.907,13.485,47.747,13.485,73.708s-4.78,50.801-13.485,73.708c-29.349,94.712-113.774,165.19-215.838,174.039  c7.172,0.622,14.426,0.958,21.76,0.958c137.356,0,248.705-111.349,248.705-248.706C504.694,118.644,393.344,7.295,255.988,7.295z"/>
<path style="fill:#2C5871;" d="M179.045,117.466c0-8.937,8.087-17.024,20.854-17.024h85.546c54.052,0,96.612,25.961,96.612,95.76  v2.554c0,69.799-43.837,96.612-100.016,96.612h-47.667v98.739c0,11.491-14.045,17.45-27.664,17.45  c-14.045,0-27.664-5.959-27.664-17.45V117.466H179.045z M234.374,148.961v102.996h47.667c27.664,0,44.688-15.747,44.688-48.944  v-5.107c0-33.197-17.024-48.944-44.688-48.944h-47.667V148.961z"/>
<path d="M7.729,239.282c4.016,0.392,7.573-2.555,7.956-6.566c5.688-59.458,33.208-114.492,77.491-154.963  C137.743,37.022,195.564,14.59,255.988,14.59c60.435,0,118.265,22.44,162.836,63.185c44.287,40.486,71.801,95.536,77.474,155.008  c0.36,3.775,3.537,6.603,7.253,6.603c0.232,0,0.466-0.011,0.701-0.033c4.01-0.383,6.951-3.944,6.569-7.955  c-6.017-63.079-35.193-121.461-82.153-164.39C381.401,23.796,320.076,0,255.988,0C191.913,0,130.597,23.788,83.334,66.984  C36.378,109.898,7.195,168.263,1.163,231.326C0.779,235.337,3.719,238.898,7.729,239.282z"/>
<path d="M504.268,272.403c-4.006-0.377-7.569,2.566-7.947,6.577c-5.619,59.526-33.111,114.633-77.413,155.17  c-44.583,40.795-102.442,63.261-162.919,63.261c-60.435,0-118.264-22.439-162.835-63.184  c-44.287-40.484-71.801-95.533-77.474-155.006c-0.383-4.011-3.943-6.956-7.955-6.569c-4.011,0.383-6.951,3.944-6.569,7.955  C7.174,343.685,36.35,402.066,83.31,444.995C130.576,488.204,191.902,512,255.988,512c64.132,0,125.488-23.825,172.768-67.087  c46.976-42.985,76.129-101.427,82.089-164.563C511.223,276.34,508.279,272.781,504.268,272.403z"/>
<path d="M255.988,41.143c-57.391,0-111.346,22.349-151.927,62.93S41.131,198.609,41.131,256s22.349,111.346,62.93,151.927  s94.536,62.93,151.927,62.93s111.346-22.349,151.927-62.93s62.93-94.536,62.93-151.927s-22.349-111.346-62.93-151.927  S313.379,41.143,255.988,41.143z M255.988,456.268C145.56,456.268,55.72,366.428,55.72,256S145.56,55.732,255.988,55.732  S456.257,145.572,456.257,256S366.416,456.268,255.988,456.268z"/>
<path d="M282.041,141.666h-47.667c-4.029,0-7.294,3.266-7.294,7.294v102.996c0,4.029,3.266,7.295,7.294,7.295h47.667  c33.036,0,51.982-20.498,51.982-56.239v-5.107C334.023,162.164,315.077,141.666,282.041,141.666z M319.434,203.012  c0,27.637-12.581,41.65-37.393,41.65h-40.373v-88.407h40.373c24.812,0,37.393,14.013,37.393,41.65V203.012z"/>
<path d="M358.823,116.657c-17.836-15.6-42.524-23.51-73.378-23.51h-85.546c-16.047,0-28.149,10.454-28.149,24.318v276.641  c0,14.569,14.375,24.744,34.959,24.744c17.372,0,34.959-8.499,34.959-24.744v-91.445h40.373c31.838,0,57.349-8.038,75.825-23.89  c20.892-17.925,31.486-44.846,31.486-80.016v-2.554C389.352,161.138,379.081,134.375,358.823,116.657z M374.763,198.756  c0,30.72-8.881,53.916-26.396,68.944c-15.756,13.519-38.071,20.373-66.325,20.373h-47.667c-4.029,0-7.294,3.266-7.294,7.294v98.739  c0,6.272-10.574,10.155-20.37,10.155c-10.013,0-20.37-3.799-20.37-10.155v-276.64c0-4.717,4.752-9.729,13.56-9.729h85.546  c40.746,0,89.317,15.348,89.317,88.466L374.763,198.756L374.763,198.756z"/>
<g>
</g>
<g>
</g>
<g>
</g>
<g>
</g>
<g>
</g>
<g>
</g>
<g>
</g>
<g>
</g>
<g>
</g>
<g>
</g>
<g>
</g>
<g>
</g>
<g>
</g>
<g>
</g>
<g>
</g>
</svg>