<?xml version="1.0" encoding="iso-8859-1"?>
<!-- Generator: Adobe Illustrator 19.0.0, SVG Export Plug-In . SVG Version: 6.00 Build 0)  -->
<svg version="1.1" id="Capa_1" xmlns="http://www.w3.org/2000/svg" xmlns:xlink="http://www.w3.org/1999/xlink" x="0px" y="0px"
	 viewBox="0 0 511.999 511.999" style="enable-background:new 0 0 511.999 511.999;" xml:space="preserve">
<circle style="fill:#EEF8FF;" cx="256" cy="184.56" r="136.34"/>
<path style="fill:#E1EFFB;" d="M256,48.225c-7.764,0-15.373,0.659-22.783,1.906c64.449,10.844,113.554,66.898,113.554,134.431
	c0,67.532-49.104,123.587-113.554,134.431c7.41,1.247,15.019,1.906,22.783,1.906c75.297,0,136.336-61.04,136.336-136.336
	C392.336,109.265,331.297,48.225,256,48.225z"/>
<path style="fill:#FF4C4C;" d="M256,7.356c-97.27,0-176.123,78.853-176.123,176.123c0,125.807,129.063,276.125,166.223,316.797
	c5.32,5.823,14.479,5.823,19.799,0c37.16-40.673,166.223-190.99,166.223-316.797C432.123,86.209,353.27,7.356,256,7.356z
	 M256,319.677c-74.622,0-135.116-60.493-135.116-135.115S181.377,49.446,256,49.446c74.622,0,135.116,60.493,135.116,135.116
	C391.116,259.184,330.622,319.677,256,319.677z"/>
<path style="fill:#F33A3A;" d="M256,7.356c-7.531,0-14.951,0.475-22.232,1.392c68.024,8.569,123.959,55.936,144.959,119.237
	c7.948,17.211,12.389,36.374,12.389,56.576c0,18.153-3.589,35.464-10.08,51.277C357.07,336.266,274.032,440.422,233.768,486.466
	c4.764,5.448,8.936,10.092,12.333,13.81c5.32,5.823,14.479,5.823,19.799,0c37.16-40.673,166.223-190.99,166.223-316.797
	C432.123,86.209,353.27,7.356,256,7.356z"/>
<path style="fill:#2C5871;" d="M205.122,101.1c0-5.421,4.905-10.325,12.649-10.325h51.886c32.784,0,58.599,15.746,58.599,58.082
	v1.549c0,42.335-26.589,58.598-60.663,58.598H238.68v59.889c0,6.97-8.519,10.584-16.779,10.584c-8.52,0-16.78-3.614-16.78-10.584
	L205.122,101.1L205.122,101.1z M238.68,120.203v62.47h28.912c16.779,0,27.105-9.551,27.105-29.686v-3.097
	c0-20.135-10.327-29.686-27.105-29.686L238.68,120.203L238.68,120.203z"/>
<path d="M381.514,160.581c0.758,3.992,4.613,6.612,8.599,5.855c3.992-0.758,6.613-4.608,5.855-8.6
	C383.235,90.769,324.371,42.089,256,42.089c-78.559,0-142.472,63.913-142.472,142.472S177.441,327.032,256,327.032
	c68.554,0,127.448-48.833,140.037-116.115c0.747-3.994-1.884-7.837-5.878-8.584c-3.987-0.747-7.835,1.884-8.583,5.878
	c-11.288,60.326-64.099,104.11-125.576,104.11c-70.446,0-127.759-57.312-127.759-127.759S185.554,56.802,256,56.802
	C317.312,56.802,370.098,100.448,381.514,160.581z"/>
<path d="M256,0C154.83,0,72.521,82.308,72.521,183.479c0,52.492,21.548,114.452,64.046,184.16c2.114,3.469,6.644,4.565,10.11,2.452
	c3.468-2.115,4.566-6.641,2.451-10.111c-41.07-67.367-61.895-126.75-61.895-176.501c0-93.058,75.708-168.766,168.766-168.766
	s168.766,75.708,168.766,168.766c0,52.263-22.892,114.975-68.038,186.393c-37.192,58.835-79.707,107.325-96.259,125.442
	c-1.162,1.272-2.749,1.973-4.468,1.973c-1.719,0-3.307-0.701-4.468-1.973c-15.242-16.682-45.354-51.167-75.778-94.686
	c-2.327-3.329-6.915-4.142-10.243-1.814c-3.33,2.328-4.143,6.914-1.814,10.244c30.901,44.203,61.49,79.233,76.973,96.179
	c3.926,4.297,9.513,6.762,15.33,6.762c5.817,0,11.404-2.465,15.33-6.762c39.445-43.174,168.148-193.973,168.148-321.759
	C439.479,82.308,357.17,0,256,0z"/>
<path d="M217.77,83.418c-11.217,0-20.005,7.767-20.005,17.681v167.792c0,10.563,9.925,17.94,24.136,17.94
	c13.985,0,24.135-7.545,24.135-17.94v-52.533h21.555c43.228,0,68.02-24.039,68.02-65.954v-1.549
	c0-41.587-24.039-65.438-65.955-65.438H217.77V83.418z M320.899,148.856v1.549c0,42.351-28.988,51.241-53.307,51.241H238.68
	c-4.063,0-7.356,3.294-7.356,7.356v59.889c0,0.958-3.657,3.227-9.422,3.227c-5.754,0-9.423-2.119-9.423-3.227V101.1
	c0-1.459,1.98-2.969,5.292-2.969h51.887c15.778,0,28.143,3.818,36.751,11.346C316.024,117.887,320.899,131.136,320.899,148.856z"/>
<path d="M238.68,112.847c-4.063,0-7.356,3.294-7.356,7.356v62.469c0,4.063,3.293,7.356,7.356,7.356h28.912
	c21.579,0,34.462-13.848,34.462-37.042v-3.097c0-23.195-12.883-37.043-34.462-37.043H238.68V112.847z M287.341,149.889v3.097
	c0,15.234-6.276,22.329-19.749,22.329h-21.555v-47.757h21.555C281.065,127.559,287.341,134.654,287.341,149.889z"/>
<g>
</g>
<g>
</g>
<g>
</g>
<g>
</g>
<g>
</g>
<g>
</g>
<g>
</g>
<g>
</g>
<g>
</g>
<g>
</g>
<g>
</g>
<g>
</g>
<g>
</g>
<g>
</g>
<g>
</g>
</svg>
