<?xml version="1.0" encoding="utf-8"?>
<!-- Generator: Adobe Illustrator 24.1.3, SVG Export Plug-In . SVG Version: 6.00 Build 0)  -->
<svg version="1.1" id="Capa_1" xmlns="http://www.w3.org/2000/svg" xmlns:xlink="http://www.w3.org/1999/xlink" x="0px" y="0px"
	 viewBox="0 0 50 50" style="enable-background:new 0 0 50 50;" xml:space="preserve">
<style type="text/css">
	.st0{fill:#2C4464;}
</style>
<g>
	<path class="st0" d="M25,0C11.2,0,0,11.2,0,25c0,13.8,11.2,25,25,25s25-11.2,25-25C50,11.2,38.8,0,25,0z M36.7,37.2H13.3v-4.3
		c0-2.1,0.9-4,2.6-5.3c1.4-1.1,3-1.9,4.8-2.5c-1.6-1.3-2.6-3.2-2.6-5.4c0-3.8,3.1-6.9,6.9-6.9s6.9,3.1,6.9,6.9c0,2.2-1,4.1-2.6,5.4
		c1.8,0.5,3.4,1.4,4.8,2.5h0c1.6,1.3,2.6,3.2,2.6,5.3V37.2z"/>
	<path class="st0" d="M33,28.9c-1.4-1.1-3.1-1.9-5-2.4h-3c0,0,0,0,0,0c0,0,0,0,0,0h-3c-1.9,0.5-3.6,1.3-5,2.4
		c-1.2,1-1.9,2.4-1.9,3.9v2.5h19.7v-2.5C34.8,31.3,34.2,29.9,33,28.9z"/>
	<path class="st0" d="M25,24.7L25,24.7c2.8,0,5.1-2.3,5.1-5.1c0-2.8-2.3-5.1-5.1-5.1c-2.8,0-5.1,2.3-5.1,5.1
		C19.9,22.5,22.2,24.7,25,24.7z"/>
</g>
</svg>
