<?xml version="1.0" encoding="utf-8"?>
<!-- Generator: Adobe Illustrator 24.1.3, SVG Export Plug-In . SVG Version: 6.00 Build 0)  -->
<svg version="1.1" id="Capa_1" xmlns="http://www.w3.org/2000/svg" xmlns:xlink="http://www.w3.org/1999/xlink" x="0px" y="0px"
	 viewBox="0 0 512 512" style="enable-background:new 0 0 512 512;" xml:space="preserve">
<style type="text/css">
	.st0{stroke:#000000;stroke-width:8;stroke-miterlimit:10;}
</style>
<path class="st0" d="M252.4,247.8c33.2,0,62-11.9,85.5-35.4c23.5-23.5,35.4-52.3,35.4-85.5c0-33.2-11.9-62-35.4-85.5
	C314.4,17.9,285.6,6,252.4,6c-33.2,0-62,11.9-85.5,35.4s-35.4,52.3-35.4,85.5c0,33.2,11.9,62,35.4,85.5
	C190.4,235.9,219.2,247.8,252.4,247.8z M187.7,62.2c18-18,39.2-26.8,64.7-26.8c25.5,0,46.7,8.8,64.7,26.8c18,18,26.8,39.2,26.8,64.7
	c0,25.5-8.8,46.7-26.8,64.7c-18,18-39.2,26.8-64.7,26.8c-25.5,0-46.6-8.8-64.7-26.8c-18-18-26.8-39.2-26.8-64.7
	C160.9,101.4,169.7,80.3,187.7,62.2z"/>
<path class="st0" d="M464,392c-0.7-9.8-2-20.5-4.1-31.7c-2-11.4-4.7-22.1-7.8-31.9c-3.2-10.1-7.7-20.2-13.1-29.7
	c-5.7-10-12.3-18.6-19.8-25.8c-7.8-7.5-17.4-13.5-28.4-17.8c-11-4.4-23.2-6.6-36.3-6.6c-5.1,0-10.1,2.1-19.7,8.3
	c-5.9,3.8-12.8,8.3-20.5,13.2c-6.6,4.2-15.5,8.1-26.5,11.7c-10.7,3.5-21.6,5.2-32.4,5.2c-10.8,0-21.7-1.8-32.4-5.2
	c-11-3.6-19.9-7.5-26.5-11.7c-7.6-4.9-14.5-9.3-20.5-13.2c-9.6-6.2-14.5-8.3-19.6-8.3c-13.1,0-25.2,2.2-36.3,6.6
	c-11,4.4-20.6,10.4-28.4,17.8c-7.5,7.1-14.1,15.8-19.8,25.8c-5.5,9.6-9.9,19.6-13.1,29.7c-3.1,9.8-5.8,20.5-7.8,31.9
	c-2,11.3-3.4,21.9-4.1,31.7c-0.7,9.6-1,19.6-1,29.6c0,26.2,8.3,47.4,24.8,63.1c16.2,15.4,37.7,23.3,63.8,23.3h241.7
	c26.1,0,47.6-7.8,63.8-23.3c16.4-15.6,24.8-36.9,24.8-63.1C465,411.6,464.7,401.6,464,392z M420,463.4c-10.7,10.2-25,15.2-43.5,15.2
	H134.7c-18.6,0-32.8-5-43.5-15.2c-10.5-10-15.6-23.7-15.6-41.8c0-9.4,0.3-18.7,0.9-27.6c0.6-8.7,1.8-18.4,3.7-28.6
	c1.8-10.1,4.1-19.5,6.9-28.1c2.6-8.2,6.2-16.4,10.7-24.2c4.2-7.5,9.1-13.9,14.5-19c5-4.8,11.4-8.8,18.9-11.7
	c6.9-2.7,14.7-4.2,23.2-4.5c1,0.5,2.9,1.6,5.8,3.5c6,3.9,13,8.4,20.7,13.4c8.7,5.5,19.9,10.5,33.2,14.9c13.7,4.4,27.6,6.7,41.4,6.7
	s27.8-2.2,41.4-6.7c13.4-4.3,24.6-9.3,33.3-14.9c7.9-5,14.7-9.4,20.7-13.4c3-1.9,4.8-3,5.8-3.5c8.5,0.2,16.2,1.7,23.2,4.5
	c7.5,3,13.8,6.9,18.9,11.7c5.4,5.2,10.3,11.6,14.5,19c4.5,7.8,8,16,10.7,24.2c2.7,8.6,5.1,18,6.9,28.1c1.8,10.2,3.1,19.8,3.7,28.6v0
	c0.6,8.9,0.9,18.2,0.9,27.6C435.6,439.8,430.5,453.4,420,463.4z"/>
</svg>
