<svg id="Capa_1" enable-background="new 0 0 512 512" height="512" viewBox="0 0 512 512" width="512" xmlns="http://www.w3.org/2000/svg"><g><g><path d="m156.203 114.8c0 40.03-32.262 72.648-72.148 73.264l17.223 14.833h273.464c48.866 0 88.479-39.614 88.479-88.479h-307.028c.001.128.01.254.01.382z" fill="#ecf3fb"/><path d="m374.742 25.938h-273.464l-17.223 15.599c39.758.614 71.933 33.027 72.138 72.881h307.028c0-48.866-39.613-88.48-88.479-88.48z" fill="#f7fcff"/></g><g><path d="m405.858 128.476h-250.953c-2.106 11.108-6.717 21.337-13.238 30.068h264.191z" fill="#e0e6f5"/><path d="m406.768 69.494h-266.315c6.84 8.663 11.769 18.895 14.143 30.068h252.172z" fill="#ecf3fb"/></g><g><path d="m380.664 11.412h-296.609v30.068h296.609c40.294 0 73.091 32.688 73.283 72.938h30.072c-.191-56.831-46.48-103.006-103.355-103.006z" fill="#89ce6d"/><path d="m453.948 114.418c.001.119.009.235.009.354 0 40.414-32.879 73.292-73.292 73.292h-296.609v30.068l131.388 10.913 165.221-10.913c56.993 0 103.36-46.367 103.36-103.36 0-.118-.004-.236-.005-.354z" fill="#5eb16a"/></g><g><g><path d="m512 248.2-25.071-14.239h-406.265c-29.413 0-53.258 23.844-53.258 53.258 0 .512.024 1.019.039 1.527l214.751 25.865 228.381-25.865c.024-22.361 18.596-40.546 41.423-40.546z" fill="#fff7e7"/><path d="m470.575 288.791c0-.015.001-.03.001-.044h-443.131c.811 28.705 24.318 51.73 53.219 51.73h413.862l17.474-11.096c-22.842 0-41.425-18.209-41.425-40.59z" fill="#ffe6ce"/></g><g><path d="m70.614 248.2h441.386v-30.068h-441.386c-38.937 0-70.614 31.677-70.614 70.614l17.609 7.384 12.459-7.384c0-22.357 18.189-40.546 40.546-40.546z" fill="#6ae1db"/><path d="m30.068 288.746h-30.068c0 38.937 31.677 70.614 70.614 70.614l213.423 15.829 227.963-15.829v-30.068h-441.386c-22.357.001-40.546-18.188-40.546-40.546z" fill="#21c8c7"/><path d="m473.658 273.446h-77.555l-36.724 6.408-37.363-6.408h-251.236v15.3l198.923 6.098 200.873-6.098c.006-5.412 1.106-10.576 3.082-15.3z" fill="#ffe6ce"/><path d="m473.408 303.514c-1.822-4.568-2.833-9.531-2.833-14.723 0-.015.001-.03.001-.044h-399.796v14.768h402.628z" fill="#fccab4"/></g></g><g><g><path d="m512 389.428-25.071-14.239h-406.265c-29.413 0-53.258 23.844-53.258 53.258 0 .512.024 1.019.039 1.527l214.751 25.865 228.381-25.865c.024-22.361 18.596-40.546 41.423-40.546z" fill="#f7fcff"/><path d="m470.575 430.019c0-.015.001-.03.001-.044h-443.131c.811 28.705 24.318 51.73 53.219 51.73h413.862l17.474-11.095c-22.842 0-41.425-18.209-41.425-40.591z" fill="#ecf3fb"/></g><g><path d="m70.614 389.428h441.386v-30.068h-441.386c-38.937 0-70.614 31.678-70.614 70.614l17.609 7.384 12.459-7.384c0-22.357 18.189-40.546 40.546-40.546z" fill="#fd465f"/><path d="m30.068 429.974h-30.068c0 38.937 31.677 70.614 70.614 70.614h441.386v-30.068h-441.386c-22.357.001-40.546-18.188-40.546-40.546z" fill="#ce0c51"/><path d="m473.658 414.674h-402.878v15.3l198.923 6.098 200.873-6.098c.006-5.412 1.106-10.576 3.082-15.3z" fill="#ecf3fb"/><path d="m473.408 444.742c-1.822-4.568-2.833-9.531-2.833-14.723 0-.015.001-.03.001-.044h-399.796v14.768h402.628z" fill="#e0e6f5"/></g></g><g><path d="m396.104 273.569h-74.087v55.724l37.043 11.183 37.044-11.183z" fill="#f8bd3f"/><path d="m322.017 329.293v100.681l36.492-15.3 37.595 15.3v-100.681z" fill="#fd9326"/></g></g></svg>