<?xml version="1.0" encoding="utf-8"?>
<!-- Generator: Adobe Illustrator 24.1.3, SVG Export Plug-In . SVG Version: 6.00 Build 0)  -->
<svg version="1.1" id="Layer_1" xmlns="http://www.w3.org/2000/svg" xmlns:xlink="http://www.w3.org/1999/xlink" x="0px" y="0px"
	 viewBox="0 0 516 516" style="enable-background:new 0 0 516 516;" xml:space="preserve">
<style type="text/css">
	.st0{stroke:#000000;stroke-width:20;stroke-miterlimit:10;}
</style>
<path class="st0" d="M435.3,461.7L410.2,177c-1.9-21.5-19.5-37.6-41.1-37.6l0,0h-25.4V97c-0.1-47.2-38.5-85.6-85.7-85.6l0,0l0,0
	c-47.2,0-85.6,38.4-85.6,85.6v42.3H147l0,0c-21.6,0-39.2,16.1-41.1,37.6L80.8,461.6c-0.1,1.5-0.2,3-0.2,4.4
	c0.3,13.9,7.5,26.4,18.6,33.7c0.1,0,0.1,0.1,0.2,0.1c0.3,0.2,0.7,0.4,1,0.6c0.3,0.2,0.5,0.3,0.8,0.5c0.2,0.1,0.3,0.2,0.5,0.3
	c0.5,0.3,1,0.5,1.4,0.8c0,0,0.1,0,0.1,0.1c4.7,2.4,10,4,15.6,4.4c1,0.1,1.9,0.1,3,0.1c0.1,0,0.1,0,0.2,0l0,0h272.4l0,0
	c0.1,0,0.1,0,0.2,0c1,0,2-0.1,3-0.1c5.6-0.4,10.8-1.9,15.6-4.4c0,0,0.1,0,0.1-0.1c0.5-0.3,1-0.5,1.4-0.8c0.2-0.1,0.3-0.2,0.5-0.3
	c0.3-0.2,0.6-0.3,0.8-0.5c0.3-0.2,0.7-0.4,1-0.6c0.1,0,0.1-0.1,0.2-0.1c11-7.3,18.4-19.7,18.6-33.7
	C435.4,464.7,435.4,463.1,435.3,461.7z M298.1,136.4h-80.4h-30.6V93c0-39.1,31.8-70.9,70.9-70.9s70.9,31.8,70.9,70.9v43.3
	L298.1,136.4L298.1,136.4z M118.3,495.8c-0.5,0-0.9,0-1.4,0c-0.4,0-0.7-0.1-1.1-0.1c-0.1,0-0.2,0-0.3,0c-5.8-0.6-11.1-3.3-15.1-7.1
	l0,0c-0.2-0.2-0.4-0.4-0.6-0.7c-0.1-0.1-0.2-0.2-0.3-0.3c-0.1-0.2-0.3-0.3-0.4-0.5c-0.1-0.2-0.3-0.3-0.4-0.5
	c-0.1-0.1-0.1-0.2-0.2-0.3c-4-5-6.1-11.3-5.6-18.1l25.8-291.8l0,0c1.2-13.2,12-23.1,25.3-23.1l0,0h26.1v38.1c0,4.7,3.8,8.4,8.4,8.4
	l0,0l0,0c4.7,0,8.4-3.8,8.4-8.4v-38.1h30.6H298h30.6v38.1c0,4.7,3.8,8.4,8.4,8.4l0,0l0,0c4.7,0,8.4-3.8,8.4-8.4v-38.1h26.1l0,0
	c13.3,0,24.1,9.9,25.3,23.1l0,0l25.8,291.8c0.6,6.8-1.6,13.3-5.6,18.1c-0.1,0.1-0.1,0.2-0.2,0.3c-0.1,0.2-0.3,0.3-0.4,0.5
	s-0.3,0.3-0.4,0.5c-0.1,0.1-0.1,0.1-0.2,0.2c-0.2,0.2-0.5,0.5-0.7,0.7l0,0c-4,3.9-9.2,6.4-15.1,7.1c-0.1,0-0.2,0-0.3,0
	c-0.4,0-0.7,0.1-1.1,0.1c-0.5,0-0.9,0-1.4,0L118.3,495.8L118.3,495.8z"/>
</svg>
